<svg xmlns="http://www.w3.org/2000/svg" viewBox="0 0 33.56 21.68"><defs><style>.cls-1{fill:#fff;}</style></defs><title>Asset 20</title><g id="Layer_2" data-name="Layer 2"><g id="Capa_6" data-name="Capa 6"><path id="_Path_" data-name="&lt;Path&gt;" class="cls-1" d="M30.56,21.68a3.21,3.21,0,0,0,2-.62L23,13.13l-.66.39q-1.07.66-1.73,1a11.56,11.56,0,0,1-1.77.75,6.31,6.31,0,0,1-2.06.38h0a6.31,6.31,0,0,1-2.06-.38,11.54,11.54,0,0,1-1.77-.75q-.66-.37-1.73-1l-.66-.4L1,21.06a3.22,3.22,0,0,0,2,.62Z"/><path id="_Path_2" data-name="&lt;Path&gt;" class="cls-1" d="M2.28,8.13A9.65,9.65,0,0,1,.39,6.77V18.84l8.38-7Q6.25,10.38,2.28,8.13Z"/><path id="_Path_3" data-name="&lt;Path&gt;" class="cls-1" d="M31.3,8.13q-3.83,2.16-6.5,3.72l8.38,7V6.77A10,10,0,0,1,31.3,8.13Z"/><path id="_Path_4" data-name="&lt;Path&gt;" class="cls-1" d="M30.56,0H3A2.93,2.93,0,0,0,.78.81a2.82,2.82,0,0,0-.78,2A3.34,3.34,0,0,0,1,5a8.74,8.74,0,0,0,2.19,1.8L7.06,9l3,1.75L12,11.86l.28.17.52.31,1,.59q.4.23,1,.51a6.28,6.28,0,0,0,1.08.42,3.52,3.52,0,0,0,.94.14h0a3.52,3.52,0,0,0,.94-.14,6.25,6.25,0,0,0,1.08-.42q.57-.28,1-.51l1-.59.52-.31.28-.17,1.9-1.1,6.87-4a8.31,8.31,0,0,0,2.28-1.92,3.69,3.69,0,0,0,.92-2.36A2.22,2.22,0,0,0,32.67.73,3.21,3.21,0,0,0,30.56,0Z"/></g></g></svg>