<svg xmlns="http://www.w3.org/2000/svg" viewBox="0 0 58.68 47.83"><defs><style>.cls-1{fill:#fff;}</style></defs><title>Asset 50</title><g id="Layer_2" data-name="Layer 2"><g id="Layer_7" data-name="Layer 7"><g id="_Group_" data-name="&lt;Group&gt;"><path id="_Path_" data-name="&lt;Path&gt;" class="cls-1" d="M29.72,9a2.33,2.33,0,0,0-.63.09,1.83,1.83,0,0,0-1.35,1c-.26.77.38,1.64,1.27,2.84A14.5,14.5,0,0,1,32,18.74l.11.58.5-.31c1.34-.84,1.36-3.63.69-6C32.54,10.51,31.22,9,29.72,9Z"/><path id="_Compound_Path_" data-name="&lt;Compound Path&gt;" class="cls-1" d="M47.75,25.77c0-.61.08-1.23.08-1.85a23.91,23.91,0,1,0-1.36,8H58.68ZM34.26,21a18.06,18.06,0,0,0-.78,2.77,24.34,24.34,0,0,0,.12,3.74,20.27,20.27,0,0,1-.19,6.69,13.55,13.55,0,0,1-4.05,6.06,2,2,0,0,1-3.23-1.91s.92-5.05-.18-8.07a7.62,7.62,0,0,0-2-3.2,7.62,7.62,0,0,0-2,3.2c-1,2.76-.34,7.11-.2,8a1.88,1.88,0,0,1,.06.49,2,2,0,0,1-2,2h-.11a2,2,0,0,1-1.16-.45,13.55,13.55,0,0,1-4.05-6.06,20.26,20.26,0,0,1-.19-6.69,24.3,24.3,0,0,0,.12-3.74A18,18,0,0,0,13.6,21c-1.27-3.9-3.2-9.78,1.18-12.54A8.07,8.07,0,0,1,19.16,7.1,9.42,9.42,0,0,1,23,8a6.3,6.3,0,0,0,1,.36,6.59,6.59,0,0,0,1-.36,9.42,9.42,0,0,1,3.8-.94,8.08,8.08,0,0,1,4.38,1.38C37.46,11.24,35.53,17.12,34.26,21Z"/></g></g></g></svg>