<svg xmlns="http://www.w3.org/2000/svg" viewBox="0 0 51.47 51.47"><defs><style>.cls-1{fill:#9ac322;}</style></defs><title>Asset 30</title><g id="Layer_2" data-name="Layer 2"><g id="Layer_7" data-name="Layer 7"><path id="_Compound_Path_" data-name="&lt;Compound Path&gt;" class="cls-1" d="M25.73,0A25.73,25.73,0,1,0,51.47,25.73,25.73,25.73,0,0,0,25.73,0ZM39.15,21.1c.37,8.34-5.85,17.65-16.86,17.65a16.79,16.79,0,0,1-9.09-2.67A11.92,11.92,0,0,0,22,33.63a5.94,5.94,0,0,1-5.54-4.12,5.94,5.94,0,0,0,2.68-.1,5.94,5.94,0,0,1-4.76-5.89,5.91,5.91,0,0,0,2.69.74,5.94,5.94,0,0,1-1.84-7.92,16.84,16.84,0,0,0,12.23,6.2,5.94,5.94,0,0,1,10.11-5.41,11.89,11.89,0,0,0,3.77-1.44A5.94,5.94,0,0,1,38.71,19,11.86,11.86,0,0,0,42.11,18,12,12,0,0,1,39.15,21.1Z"/></g></g></svg>