<?xml version="1.0" encoding="utf-8"?>
<!-- Generator: Adobe Illustrator 19.0.0, SVG Export Plug-In . SVG Version: 6.00 Build 0)  -->
<svg version="1.1" id="Capa_1" xmlns="http://www.w3.org/2000/svg" xmlns:xlink="http://www.w3.org/1999/xlink" x="0px" y="0px"
	 viewBox="0 0 45 45" style="enable-background:new 0 0 45 45;" xml:space="preserve">
<style type="text/css">
	.st0{fill:#75716F;}
</style>
<path id="XMLID_5_" class="st0" d="M-110.4,85.1l-7-7c-1.4-1.4-3.7-1.3-5.1,0.1l-3.5,3.5c-0.2-0.1-0.5-0.3-0.7-0.4
	c-2.2-1.2-5.2-2.9-8.4-6.1c-3.2-3.2-4.9-6.2-6.1-8.5c-0.1-0.2-0.3-0.5-0.4-0.7l2.4-2.4l1.2-1.2c1.4-1.4,1.5-3.7,0.1-5.1l-7-7
	c-1.4-1.4-3.7-1.3-5.1,0.1l-2,2l0.1,0.1c-0.7,0.8-1.2,1.8-1.6,2.9c-0.4,1-0.6,1.9-0.7,2.9c-0.9,7.6,2.6,14.6,12,24
	c13.1,13.1,23.6,12.1,24.1,12c1-0.1,1.9-0.4,2.9-0.7c1-0.4,2-1,2.8-1.6l0,0l2-1.9C-109.1,88.8-109,86.5-110.4,85.1"/>
<path class="st0" d="M22.5,0C10.1,0,0,10.1,0,22.5C0,34.9,10.1,45,22.5,45S45,34.9,45,22.5C45,10.1,34.9,0,22.5,0 M24.1,25.3
	c0,0.1,0,0.1,0,0.2c0,0,0,0.1,0,0.1c0,0,0,0.1,0,0.1c0,0.1,0,0.1-0.1,0.2c0,0,0,0,0,0c0,0.1-0.1,0.1-0.1,0.2l0,0
	c0,0.1-0.1,0.1-0.2,0.2c0,0,0,0,0,0c-0.1,0-0.1,0.1-0.2,0.1c0,0,0,0-0.1,0c-0.1,0-0.2,0.1-0.2,0.1c0,0,0,0-0.1,0
	c-0.1,0-0.1,0-0.2,0.1c0,0-0.1,0-0.1,0c-0.1,0-0.2,0-0.3,0c0,0,0,0-0.1,0c-0.1,0-0.2,0-0.3,0c0,0-0.1,0-0.1,0c-0.1,0-0.2,0-0.2-0.1
	c0,0,0,0,0,0l-8.6-4.1c-0.8-0.4-1.1-1.3-0.7-2.1c0.4-0.8,1.3-1.1,2.1-0.7l6.4,3V9.3c0-0.9,0.7-1.6,1.6-1.6c0.9,0,1.6,0.7,1.6,1.6
	L24.1,25.3L24.1,25.3C24.1,25.2,24.1,25.2,24.1,25.3"/>
<path id="XMLID_2_" class="st0" d="M-131.9-28.3c-9,0-16.3,7.3-16.3,16.3c0,11.2,14.6,27.5,15.2,28.2c0.6,0.6,1.6,0.6,2.2,0
	c0.6-0.7,15.2-17.1,15.2-28.2C-115.6-21-123-28.3-131.9-28.3 M-131.9-3.8c-4.5,0-8.2-3.7-8.2-8.2c0-4.5,3.7-8.2,8.2-8.2
	c4.5,0,8.2,3.7,8.2,8.2C-123.7-7.5-127.4-3.8-131.9-3.8"/>
</svg>
