<?xml version="1.0" encoding="utf-8"?>
<!-- Generator: Adobe Illustrator 19.0.0, SVG Export Plug-In . SVG Version: 6.00 Build 0)  -->
<svg version="1.1" id="Capa_1" xmlns="http://www.w3.org/2000/svg" xmlns:xlink="http://www.w3.org/1999/xlink" x="0px" y="0px"
	 viewBox="0 0 45 45" style="enable-background:new 0 0 45 45;" xml:space="preserve">
<style type="text/css">
	.st0{fill:#75716F;}
</style>
<path id="XMLID_5_" class="st0" d="M44,35.6l-7-7c-1.4-1.4-3.7-1.3-5.1,0.1l-3.5,3.5c-0.2-0.1-0.5-0.3-0.7-0.4
	c-2.2-1.2-5.2-2.9-8.4-6.1c-3.2-3.2-4.9-6.2-6.1-8.5c-0.1-0.2-0.3-0.5-0.4-0.7l2.4-2.4l1.2-1.2c1.4-1.4,1.5-3.7,0.1-5.1l-7-7
	C8.1-0.4,5.8-0.3,4.3,1.1l-2,2l0.1,0.1C1.8,4,1.2,4.9,0.8,6C0.4,7,0.2,7.9,0.1,8.9c-0.9,7.6,2.6,14.6,12,24C25.2,46,35.7,45,36.2,45
	c1-0.1,1.9-0.4,2.9-0.7c1-0.4,2-1,2.8-1.6l0,0l2-1.9C45.4,39.3,45.4,37,44,35.6"/>
</svg>
