<?xml version="1.0" encoding="utf-8"?>
<!-- Generator: Adobe Illustrator 19.0.0, SVG Export Plug-In . SVG Version: 6.00 Build 0)  -->
<svg version="1.1" id="Capa_1" xmlns="http://www.w3.org/2000/svg" xmlns:xlink="http://www.w3.org/1999/xlink" x="0px" y="0px"
	 viewBox="0 0 45 45" style="enable-background:new 0 0 45 45;" xml:space="preserve">
<style type="text/css">
	.st0{fill:#75716F;}
</style>
<path id="XMLID_5_" class="st0" d="M-110.4,85.1l-7-7c-1.4-1.4-3.7-1.3-5.1,0.1l-3.5,3.5c-0.2-0.1-0.5-0.3-0.7-0.4
	c-2.2-1.2-5.2-2.9-8.4-6.1c-3.2-3.2-4.9-6.2-6.1-8.5c-0.1-0.2-0.3-0.5-0.4-0.7l2.4-2.4l1.2-1.2c1.4-1.4,1.5-3.7,0.1-5.1l-7-7
	c-1.4-1.4-3.7-1.3-5.1,0.1l-2,2l0.1,0.1c-0.7,0.8-1.2,1.8-1.6,2.9c-0.4,1-0.6,1.9-0.7,2.9c-0.9,7.6,2.6,14.6,12,24
	c13.1,13.1,23.6,12.1,24.1,12c1-0.1,1.9-0.4,2.9-0.7c1-0.4,2-1,2.8-1.6l0,0l2-1.9C-109.1,88.8-109,86.5-110.4,85.1"/>
<path id="XMLID_2_" class="st0" d="M22.5,0c-9,0-16.3,7.3-16.3,16.3c0,11.2,14.6,27.5,15.2,28.2c0.6,0.6,1.6,0.6,2.2,0
	c0.6-0.7,15.2-17.1,15.2-28.2C38.8,7.3,31.5,0,22.5,0 M22.5,24.5c-4.5,0-8.2-3.7-8.2-8.2c0-4.5,3.7-8.2,8.2-8.2
	c4.5,0,8.2,3.7,8.2,8.2C30.7,20.8,27,24.5,22.5,24.5"/>
</svg>
