<svg xmlns="http://www.w3.org/2000/svg" viewBox="0 0 440.2 535.85"><defs><style>.cls-1{fill:#cbdd92;}.cls-2{fill:#c2d097;}.cls-3{fill:#81847c;}.cls-4{fill:#959a8b;}.cls-5{fill:#a8b295;}.cls-6{fill:#75716f;}</style></defs><title>Asset 80</title><g id="Layer_2" data-name="Layer 2"><g id="Capa_6" data-name="Capa 6"><path class="cls-1" d="M440.2,141.22V127c-30.91.52-61.87,0-92.92-1.71Q242.2,119.37,138,105.38c-46.06-6.26-92-13.32-138-20.6v20.29c78.84,11.12,157.76,21.39,237,28.47C304.6,139.59,372.32,142.68,440.2,141.22Z"/><path class="cls-1" d="M410.64,36.14q14.81-2.06,29.57-4.37V9.89c-88.26,13-177.13,18.91-267.33,11.7C114.83,17,57.29,9.33,0,0V24.87c41.73,6.37,83.58,12,125.63,16.41A1174.09,1174.09,0,0,0,410.64,36.14Z"/><path class="cls-2" d="M347.29,182.28Q242.2,176.34,138,162.36C91.9,156.1,45.94,149,0,141.75V162c78.84,11.12,157.76,21.39,237,28.47,67.61,6,135.33,9.14,203.22,7.68V184C409.3,184.51,378.33,184,347.29,182.28Z"/><path class="cls-3" d="M0,272V283.1c67.08-9.51,134.36-16.85,202.12-18.29,79.8-1.7,159,5.94,238.08,16.22V265c-49.37-5-98.82-8.86-148.41-10.48C194,251.35,96.9,259.7,0,272Z"/><path class="cls-4" d="M52.55,246.64q-26.27.91-52.55,1.88v11.41c77.42-5,154.86-9.14,232.38-11.35,69.25-2,138.53-.86,207.83,1.5v-8.91Q246.38,239.73,52.55,246.64Z"/><path class="cls-5" d="M264.35,218.34c-79.85-3.59-159.62-7.87-239.3-14.46L0,201.81v14c75,3.25,150.09,6.4,225.16,7.76,71.68,1.3,143.37,1.8,215,1v-4.24c-4.95.13-9.9.28-14.84.4C371.71,222,318,220.76,264.35,218.34Z"/><path class="cls-6" d="M17.32,293.66Q8.65,295,0,296.36V535.85H440.2v-228c-45.77-7.7-91.67-14.55-137.82-19.74A1088.85,1088.85,0,0,0,17.32,293.66Z"/></g></g></svg>