<svg xmlns="http://www.w3.org/2000/svg" viewBox="0 0 719.83 559.73"><defs><style>.cls-1{fill:none;stroke:#cbdd92;stroke-miterlimit:10;}.cls-2{fill:#cbdd92;}.cls-3{fill:#c2d097;}.cls-4{fill:#81847c;}.cls-5{fill:#959a8b;}.cls-6{fill:#a8b295;}.cls-7{fill:#75716f;}</style></defs><title>Asset 80</title><g id="Layer_2" data-name="Layer 2"><g id="Capa_6" data-name="Capa 6"><path class="cls-1" d="M393.67,278.43c77.16,2.52,154,10.37,230.68,19.8q47.47,5.84,95,11.43V281.41c-54.95-2.59-109.89-5-164.87-7-73.42-2.65-146.83-4-220.21-1.93-100.14,2.86-200.16,9-300.15,15.86Q17.3,289.48.5,290.57v18.9q27.14-3.62,54.27-7.35C167.3,286.59,280.06,274.71,393.67,278.43Z"/><path class="cls-1" d="M629.35,266.13c30,.53,60,.84,90,1.14V243.43c-130.73,6.06-261.51,6.35-392.29,4C229,245.63,131,240.8,33,236.69Q16.74,236,.5,235.25V276c51.32-1.68,102.62-3.7,153.93-5.47Q391.89,262.31,629.35,266.13Z"/><path class="cls-1" d="M366.23,242.22c53.69,2.42,107.35,3.62,161,2.35q96.11-2.28,192.09-8.23V210.51q-60.49,5.6-121.17,9.31c-86.69,5.23-173.08,2.29-259.29-5.42-106.81-9.56-213.06-24.87-319.3-40.3-6.35-.92-12.71-1.81-19.07-2.71v45.93q63.22,5.17,126.43,10.45C206.61,234.35,286.38,238.63,366.23,242.22Z"/><path class="cls-1" d="M404.26,312c86.67,9.76,172.46,25.31,258.16,41.48q28.45,5.37,56.91,10.78v-34.8Q658,320.92,596.69,312.36c-97.17-13.7-194.51-25.75-292.7-23.66-93.13,2-185.36,15.09-277.41,29.7Q13.54,320.46.5,322.61V339c39.4-8.13,78.93-15.44,118.7-21.43A1088.85,1088.85,0,0,1,404.26,312Z"/><path class="cls-1" d="M449.16,206.16c90.55,5.12,180.44-.61,270.17-10.48V153.54q-60.49,5.6-121.17,9.31c-86.69,5.23-173.08,2.29-259.29-5.42-106.81-9.56-213.06-24.88-319.3-40.3-6.35-.92-12.71-1.81-19.07-2.71v35c79.73,12.67,159.38,25.93,239.34,36.8Q344.08,200.4,449.16,206.16Z"/><path class="cls-1" d="M449.16,149.19c90.55,5.12,180.44-.61,270.17-10.48V22.22C650.77,36.87,582,50.33,512.51,60a1174.09,1174.09,0,0,1-285,5.14c-76.17-7.95-151.66-20-227-33V92.46c79.73,12.67,159.38,25.93,239.34,36.8Q344.08,143.43,449.16,149.19Z"/><path class="cls-2" d="M338.86,157.42c86.21,7.71,172.61,10.65,259.29,5.42q60.68-3.66,121.17-9.31V138.7c-89.72,9.88-179.61,15.6-270.17,10.48q-105.08-5.94-209.32-19.92C159.88,118.4,80.23,105.13.5,92.46v21.94c6.36.9,12.71,1.79,19.07,2.71C125.8,132.55,232.06,147.87,338.86,157.42Z"/><path class="cls-2" d="M512.51,60C582,50.33,650.77,36.87,719.33,22.22V0Q695.75,5.25,672.1,10.24C541,37.72,409.36,56.22,274.75,45.47,190.09,38.71,106.49,25.59,23.17,10.09Q11.83,8,.5,5.84V32.13c75.35,13,150.84,25.08,227,33A1174.09,1174.09,0,0,0,512.51,60Z"/><path class="cls-3" d="M338.86,214.4c86.21,7.71,172.61,10.65,259.29,5.42q60.68-3.66,121.17-9.31V195.68c-89.72,9.88-179.61,15.6-270.17,10.48q-105.08-5.94-209.32-19.92c-80-10.87-159.6-24.13-239.34-36.8v21.94c6.36.9,12.71,1.79,19.07,2.71C125.8,189.52,232.06,204.84,338.86,214.4Z"/><path class="cls-4" d="M304,288.69c98.19-2.09,195.53,10,292.7,23.66Q658,321,719.33,329.44V309.66q-47.5-5.58-95-11.43c-76.7-9.43-153.53-17.28-230.68-19.8-113.61-3.71-226.37,8.16-338.9,23.7Q27.64,305.87.5,309.47v13.14q13-2.15,26.09-4.23C118.64,303.79,210.86,290.67,304,288.69Z"/><path class="cls-5" d="M334.25,272.46c73.37-2.09,146.79-.72,220.21,1.93,55,2,109.92,4.43,164.87,7V267.27c-30-.3-60-.61-90-1.14q-237.46-4.22-474.92,4.39C103.12,272.29,51.82,274.32.5,276v14.57q16.8-1.1,33.6-2.25C134.1,281.45,234.12,275.32,334.25,272.46Z"/><path class="cls-6" d="M327,247.41c130.78,2.37,261.56,2.08,392.29-4v-7.09q-96,5.89-192.09,8.23c-53.65,1.27-107.32.07-161-2.35-79.85-3.59-159.62-7.87-239.3-14.46Q63.71,222.53.5,217.31v17.94Q16.74,236,33,236.69C131,240.8,229,245.63,327,247.41Z"/><path class="cls-7" d="M662.42,353.47C576.72,337.3,490.93,321.75,404.26,312a1088.85,1088.85,0,0,0-285.06,5.55C79.43,323.52,39.9,330.84.5,339V559.73H719.33V364.25Q690.87,358.87,662.42,353.47Z"/></g></g></svg>