<svg xmlns="http://www.w3.org/2000/svg" viewBox="0 0 1990.7 225.52"><defs><style>.cls-1{fill:#cbdd92;}</style></defs><title>Asset 50</title><g id="Layer_2" data-name="Layer 2"><g id="Capa_6" data-name="Capa 6"><path id="_Path_" data-name="&lt;Path&gt;" class="cls-1" d="M1990.6,225.52c-69.09-14.38-137.53-30.38-204.54-50.21-97.7-28.92-193.55-61.66-291.84-89.37-103-29-208.17-51.06-317.2-59.07-72.87-5.36-145.84-3.55-218.83.81C892.27,31.6,826.59,37,761,43c-71.38,6.58-142.42,15.08-213.48,23.49-91.94,10.89-183.73,22.59-276,31.74-85,8.44-170,16.2-255.62,19.58-5.27.21-10.57-.08-15.85-.14L.11,62c4.67-.66,9.34-1.83,14-1.9C75,59.18,135.47,54.39,196,49.66,260.61,44.61,325.05,38.12,389.41,31c65.9-7.24,131.91-13.85,197.76-21.39,27-3.09,54.42-3.94,80.91-9.66l661.48,1.32c1.32.66,2.54,1.69,4,1.93,68.37,11.41,134.88,28,200.41,47,89.88,26,179,53.59,268.87,79.64,61.51,17.83,123.67,34.23,187.89,45Z"/></g></g></svg>