<svg xmlns="http://www.w3.org/2000/svg" viewBox="0 0 2013.8 296.82"><defs><style>.cls-1{fill:#cbdd92;}</style></defs><title>Asset 40</title><g id="Layer_2" data-name="Layer 2"><g id="Capa_6" data-name="Capa 6"><path id="_Path_" data-name="&lt;Path&gt;" class="cls-1" d="M0,0C111.07,6.34,219,29.61,325.64,60c117.3,33.47,231.83,75.58,348.27,111.73,97.66,30.32,196.48,55.14,297.94,69,65.7,9,130.94,5.69,196.66-1.45,174.55-19,345.22-59.5,517.65-90.26,102.66-18.32,205.79-33.61,310.29-37,5.81-.19,11.57-1.78,17.35-2.72v35.39a2546.66,2546.66,0,0,0-253.45,27.67c-146.24,23.26-290.5,56.74-436.09,83.28-87.83,16-176.2,28-265,37.75-94.3,10.33-185.58-4.66-276.52-24.84-125.67-27.89-245.66-74.08-366.51-117.29C305.35,111.69,193.87,74.19,77.71,53,52,48.25,25.91,45.48,0,41.82Q0,20.91,0,0Z"/></g></g></svg>