<svg xmlns="http://www.w3.org/2000/svg" viewBox="0 0 1788.67 469.96"><defs><style>.cls-1{fill:#cbdd92;}</style></defs><title>Asset 70</title><g id="Layer_2" data-name="Layer 2"><g id="Capa_6" data-name="Capa 6"><path id="_Path_" data-name="&lt;Path&gt;" class="cls-1" d="M0,0C98.65,10,194.51,46.88,289.24,95.07c104.19,53,205.91,119.66,309.33,176.91,86.74,48,174.51,87.31,264.63,109.26,58.36,14.21,116.3,9,174.67-2.3,155-30.06,306.63-94.2,459.78-142.91,91.18-29,182.78-53.21,275.6-58.53,5.16-.3,10.28-2.82,15.41-4.31v56c-75.46,7.77-150.44,22.63-225.12,43.8-129.89,36.83-258,89.84-387.34,131.86-78,25.35-156.5,44.38-235.39,59.78C857.06,481,776,457.28,695.22,425.32,583.6,381.15,477,308,369.68,239.61,271.22,176.84,172.2,117.47,69,83.84,46.17,76.4,23,72,0,66.22Q0,33.11,0,0Z"/></g></g></svg>