<svg xmlns="http://www.w3.org/2000/svg" viewBox="0 0 384.21 320.71"><title>Asset 40</title><g id="Layer_2" data-name="Layer 2"><g id="Capa_6" data-name="Capa 6"><path d="M0,118.63c2.3-2.83,5.29-3.53,8.86-3.53q183.14.1,366.29.06c7.72,0,10.14,3,8.63,10.46-14.59,72.33-70.12,127.23-142.72,141a145.6,145.6,0,0,1-27.79,2.73c-14.4-.07-28.8.29-43.19-.08-41.62-1.08-78.42-15.28-110.17-42.09-31-26.17-50.53-59.41-59.26-99-.17-.78-.44-1.53-.66-2.3Zm191.9,9.88h-5.6q-83.57,0-167.15,0c-2.44,0-4.57-.28-3.59,3.49a170.06,170.06,0,0,0,18.88,44.78,4.44,4.44,0,0,0,4.21,2.41c13.6,0,27.19-.07,40.79,0,2.59,0,3.55-.91,3.5-3.5q-.17-9.79,0-19.59c.15-10.22-1.69-8.72,9.24-9,3.15-.08,4.21,1,4.14,4.16-.16,8.13,0,16.26-.08,24.39,0,2.56.85,3.56,3.47,3.53,10.26-.1,20.53-.11,30.79,0,2.84,0,3.71-1,3.65-3.77-.13-6.4-.12-12.8,0-19.19.17-10.36-1.83-8.89,9.5-9.12,3-.06,3.92,1.13,3.88,4-.12,8.13,0,16.26-.08,24.39,0,2.81,1,3.72,3.74,3.69,10.13-.11,20.26-.14,30.39,0,3.1,0,3.87-1.2,3.8-4-.15-6.26-.13-12.53,0-18.79.17-10.54-1.81-9,9.35-9.28,3.29-.08,4.07,1.3,4,4.27-.13,8,0,16-.08,24,0,2.65.68,3.87,3.59,3.83q15.39-.19,30.79,0c3,0,3.59-1.28,3.54-3.88q-.17-9.59,0-19.19c.15-10.25-1.68-8.76,9.21-9,3.09-.07,4.25.94,4.18,4.12-.17,8,0,16-.1,24-.05,2.89.81,4,3.85,4,10.13-.15,20.26-.13,30.39,0,2.8,0,3.75-1,3.69-3.73-.14-6.39-.13-12.8,0-19.19.17-10.41-1.82-8.93,9.46-9.16,3-.06,4,1,3.92,4-.13,8,.08,16-.1,24-.07,3.13.95,4.18,4.11,4.14q19.59-.21,39.19,0a5.83,5.83,0,0,0,5.76-3.28A165.9,165.9,0,0,0,368,133.31c1.22-4.8,1.23-4.81-3.73-4.81Zm-.7,127.39c16.9.27,33,0,48.92-3.13,38.71-7.69,70.63-26.86,95.91-57.13.63-.75,2-1.45,1.28-2.62-.61-1-2-.49-3-.49-7.86,0-15.73,0-23.59,0-9.64,0-9.64,0-9.64,9.69,0,10.38,0,10.32-10.29,9.53-2.2-.17-3.09-1-3.06-3.16.06-4.13-.12-8.27,0-12.39.11-2.78-.92-3.75-3.71-3.72-10.13.12-20.26.14-30.39,0-3.06,0-3.88,1.13-3.84,4,.14,8.53.12,17.06,0,25.59-.11,10.1,1.57,8.6-8.91,8.93-3.62.11-4.55-1.25-4.48-4.65.18-9.86-.06-19.73.13-29.59.06-3.37-1.1-4.35-4.37-4.29-9.73.17-19.46.22-29.19,0-3.68-.09-4.5,1.31-4.42,4.67.2,8.26.14,16.53,0,24.79-.13,10.29,1.67,8.78-9.16,9.07-3.46.09-4.27-1.33-4.23-4.48.14-9.86,0-19.73.11-29.59,0-3.17-.73-4.53-4.21-4.45-9.86.2-19.73.17-29.59,0-3.11,0-4.24.88-4.17,4.09.19,8.53.14,17.06,0,25.59-.11,10,1.57,8.56-9,8.83-3.26.08-4.45-1-4.39-4.32.17-9.86-.07-19.73.12-29.59.07-3.42-.84-4.74-4.46-4.62-7.86.25-15.72.08-23.59.08-9.86,0-9.74,0-9.89,9.87-.16,10.69,2.23,9.19-10,9.34-2.4,0-3.35-1-3.3-3.33.09-4-.13-8,.06-12,.14-2.95-.91-4-3.89-3.94-9.73.14-19.46,0-29.19.08-1.11,0-2.68-.66-3.22.72-.41,1,.86,1.84,1.52,2.64a164.1,164.1,0,0,0,79.35,52.87C148.56,255.25,170.17,256.39,191.2,255.9Z"/><path d="M0,29a13,13,0,0,1,6.37-3.81c10-2.42,16.16-8.75,18.69-18.69.1-.39.18-.78.29-1.16.94-3.3,3-5.31,6.54-5.36a6.22,6.22,0,0,1,6.66,5.17c2.53,11.15,9.24,17.93,20.4,20.46a6.26,6.26,0,0,1,5.27,6.59,6.28,6.28,0,0,1-5.29,6.58c-11.16,2.52-17.87,9.3-20.38,20.46a6.23,6.23,0,0,1-6.65,5.18,6.14,6.14,0,0,1-6.4-5C22.93,48.17,16.25,41.16,4.84,38.8,2.75,38.36,1.51,36.7,0,35.43ZM31.78,24.7a18,18,0,0,0-1.43,1.16c-1.51,1.48-2.92,3.09-4.52,4.47s-1.54,2.55.08,3.83a26.24,26.24,0,0,1,2.64,2.42c3.41,3.54,3.4,3.55,6.9-.12,4.09-4.28,4.11-4.3,0-8.58C34.36,26.77,33.66,25.21,31.78,24.7Z"/><path d="M187.45,320.51c-17.22.68-38.84-.21-60-6.28Q52.54,292.77,14.9,224.58c-1.67-3-1.39-4.56,1.87-6.13,8.14-3.93,8-4,12.54,3.62,27.76,47,68.75,74.87,122.6,83.21,20.58,3.19,41.47,2.11,62.26,1.52a162.65,162.65,0,0,0,57.93-12.24q55.68-23,84.47-76c1.86-3.42,3.37-3.89,6.71-2.1,9.16,4.9,8.68,3.11,3.58,11.85-28.94,49.58-71.77,79.41-128.2,89.85C223.18,321,207.6,320.44,187.45,320.51Z"/><path d="M379,91.95c-.68,2.93-1.32,5.92-2.08,8.89-.68,2.63-2.65,1.63-4.24,1.28q-21.28-4.58-42.55-9.23-46.45-10.12-92.88-20.3c-3.53-.78-6.14-.32-9,2.19-9.64,8.41-19.57,16.48-29.42,24.65-5.77,4.78-7.88,4.79-13.57.07-9.74-8.09-19.58-16.07-29.11-24.39a9.87,9.87,0,0,0-9.69-2.43Q87.38,85.73,28.23,98.51c-5.85,1.27-11.74,2.41-17.57,3.79-2.39.56-3.28-.18-3.93-2.47-2.83-9.93-2.92-10,7-12.14Q81.6,72.87,149.52,58.09A11.32,11.32,0,0,1,160.2,60.7c9.63,8.22,19.47,16.19,29.1,24.41,2,1.71,3.28,1.86,5.36.09,9.73-8.31,19.66-16.38,29.4-24.68A10.67,10.67,0,0,1,234,58q70.43,15.4,140.89,30.69C376.71,89.06,379.09,88.9,379,91.95Z"/></g></g></svg>