<svg xmlns="http://www.w3.org/2000/svg" viewBox="0 0 154.3 85.13"><defs><style>.cls-1{fill:#75716f;}</style></defs><title>Asset 10</title><g id="Layer_2" data-name="Layer 2"><g id="Capa_6" data-name="Capa 6"><g id="_Group_" data-name="&lt;Group&gt;"><path id="_Compound_Path_" data-name="&lt;Compound Path&gt;" class="cls-1" d="M154.3,83.51a3.84,3.84,0,0,1-3.5,1.61q-73.55,0-147.09,0C.86,85.11,0,84.26,0,81.43q0-19,0-38.09c0-4.15,2.41-7,6.6-7.39,1.69-.16,1.66-.7,1.28-2A62.45,62.45,0,0,1,6.41,27.5,1.49,1.49,0,0,0,4.59,26c-1.1.05-2.21,0-3.31,0C.41,26.07,0,25.72,0,24.8c.06-5.2-.62-4.23,3.81-4.26,1.4,0,1.59-.44,1.49-1.78C5,14.72,4.77,10.67,6.91,6.89A13.61,13.61,0,0,1,27,2.85L28,3.7c2.16,1.75,3.92,1.73,6-.15A13.33,13.33,0,0,1,42.79,0,13,13,0,0,1,53.1,4.45c.77.84,1.13.91,1.93,0A13.45,13.45,0,0,1,73.51,3.08a10.45,10.45,0,0,0,2.05,1.51c1.69.81,3.16.32,4.55-.87C83.94.4,88.3-.82,93.26.61a12.25,12.25,0,0,1,6.13,3.9c.61.73,1,.87,1.76.09,5.61-5.77,13.11-6.13,19.28-1,2.19,1.83,3.83,1.81,6.15-.08C133.06-1.73,141.2-1,146.35,5.23a12.58,12.58,0,0,1,2.88,7.61,32.84,32.84,0,0,1-.17,6.46c-.13.86.16,1.21,1,1.21,1.4,0,2.81,0,4.21.06V26c-1.6,0-3.21.06-4.81.06-.75,0-1.26.22-1.39,1a69.88,69.88,0,0,1-1.79,7.76c-.15.54-.17,1,.62,1,3.22.11,5.55,1.77,7.38,4.3ZM77.13,79.59H147c2.06,0,2.06,0,2.06-1.94q0-16.94,0-33.88c0-1.63-.53-2.22-2.06-2.33-1.73-.13-2.78.51-2.92,2-.52,5.54-1,11.08-1.45,16.62-.27,3-.41,6.11-.88,9.12a6.8,6.8,0,0,1-13.41,0c-.49-3.37-.64-6.78-.92-10.18-.4-4.89-.77-9.79-1.2-14.68a2.8,2.8,0,0,0-2.77-2.81,2.87,2.87,0,0,0-2.79,2.82c-.43,5.25-.81,10.49-1.24,15.74-.26,3.15-.41,6.31-.91,9.42a6.65,6.65,0,0,1-6.72,5.38,6.78,6.78,0,0,1-6.64-5.68c-.32-2-.44-4.08-.61-6.13-.49-5.59-.94-11.19-1.46-16.78-.15-1.67-.93-2.18-2.94-2.13s-2.52.63-2.66,2.32c-.6,7.39-1.17,14.79-1.86,22.17A6.46,6.46,0,0,1,91,74.41a6.54,6.54,0,0,1-7.18-1.72c-1.91-1.86-2-4.3-2.17-6.7-.55-7.1-1-14.2-1.58-21.29-.15-2-1.35-3.25-2.92-3.22s-2.72,1.3-2.87,3.27q-.92,11.84-1.84,23.69a7,7,0,0,1-6.79,6.41,6.87,6.87,0,0,1-6.88-6.13c-.67-7.29-1.25-14.58-1.85-21.87-.13-1.53-.86-2.22-2.69-2.34-1.64-.11-2.8.62-2.95,2-.33,3.09-.55,6.19-.82,9.28-.37,4.24-.62,8.5-1.14,12.73a6.81,6.81,0,0,1-7.16,6.29c-3.63-.19-6.32-3.06-6.61-7q-.88-11.7-1.81-23.39a3,3,0,0,0-2.79-3,2.78,2.78,0,0,0-2.79,2.79c-.35,3.44-.6,6.89-.88,10.34-.38,4.65-.63,9.3-1.16,13.93a6.74,6.74,0,0,1-6.84,6.29,6.92,6.92,0,0,1-6.83-6.54c-.42-3.94-.66-7.89-1-11.84-.35-4.24-.68-8.49-1.1-12.73-.17-1.77-1.15-2.44-3-2.3-1.6.13-2.05.71-2.05,2.64q0,16.64,0,33.27c0,2.23,0,2.24,2.23,2.24ZM17.38,26.06c-1.5,0-3,0-4.51,0-.87,0-1.18.27-1,1.16.47,1.9.83,3.82,1.34,5.71,1.15,4.24,2.69,8.35,2.94,12.84.41,7.25,1.15,14.48,1.74,21.72.07.91.21,1.77,1.36,1.79s1.45-.82,1.53-1.82q.9-11.76,1.82-23.52a8.42,8.42,0,0,1,8-8,8.18,8.18,0,0,1,8.44,7.21c.46,3.37.61,6.78.89,10.17q.58,7.11,1.15,14.23c.07.86.26,1.66,1.32,1.68s1.49-.67,1.57-1.64c.51-6.24,1-12.49,1.56-18.72.34-3.52.19-7.12,1.44-10.53a77.43,77.43,0,0,0,3-10.72c.23-1.08.17-1.67-1.22-1.62-2.76.1-5.52.09-8.27,0-1.33,0-1.74.41-1.71,1.72.05,2.45-1,3.4-3.49,3.42s-5.22,0-7.83,0c-3.39,0-4.06-.55-4.39-3.88-.1-1-.53-1.28-1.44-1.26C20.19,26.09,18.78,26.06,17.38,26.06Zm46.4,0c-1.55,0-3.11,0-4.66,0-.87,0-1.17.35-1,1.22.42,1.7.72,3.43,1.19,5.12.82,2.94,2.12,5.81,2.51,8.8.79,6.05,1.1,12.17,1.6,18.26.22,2.7.42,5.39.69,8.08.09.86.34,1.75,1.49,1.73s1.29-.83,1.37-1.66c.18-1.89.33-3.79.48-5.69.5-6.19.92-12.39,1.52-18.57A8.22,8.22,0,0,1,77.3,36a8.37,8.37,0,0,1,8.13,7.78c.52,6.59,1,13.18,1.52,19.78.11,1.4.19,2.8.34,4.19a1.54,1.54,0,0,0,1.22,1.53A1.2,1.2,0,0,0,90,68.5,5.17,5.17,0,0,0,90.32,67c.54-6.59,1-13.18,1.6-19.77.29-3.18.32-6.38,1.49-9.46a69.94,69.94,0,0,0,2.78-10.14C96.49,26.27,96,26,94.8,26c-2.66.05-5.32.07-8,0-1.29,0-1.77.34-1.76,1.69,0,2.44-1.06,3.43-3.53,3.45-2.66,0-5.32,0-8,0-3.34,0-4-.6-4.25-4-.06-.82-.35-1.18-1.18-1.17C66.68,26.08,65.23,26.06,63.77,26.06Zm46.18,0c-1.45,0-2.91.06-4.36,0-1.14-.06-1.41.39-1.16,1.41.52,2.09,1,4.2,1.54,6.28.71,2.56,1.8,5,2.21,7.64.58,3.75.7,7.58,1,11.37.41,5,.81,10,1.24,15,.1,1.2,1,1.85,1.91,1.49s.89-1.11.95-1.87c.5-6.59,1-13.19,1.55-19.78a24,24,0,0,1,.77-5.95A8.28,8.28,0,0,1,124.28,36c4.36.6,7.17,3.74,7.51,8.27.58,7.69,1.2,15.38,1.79,23.07.07,1,.19,1.89,1.44,1.87s1.38-.9,1.46-1.88c.59-7.24,1.16-14.48,1.83-21.71a26.12,26.12,0,0,1,1.07-7,77.21,77.21,0,0,0,3.06-11c.25-1.17.13-1.74-1.3-1.68-2.65.1-5.32.08-8,0-1.27,0-1.75.34-1.83,1.67-.15,2.67-1.12,3.46-3.85,3.47s-5.22,0-7.83,0c-3.13,0-3.91-.71-4-3.83,0-1-.4-1.33-1.35-1.31C112.86,26.09,111.41,26.06,110,26.06ZM17,20.51c1.35,0,2.71-.07,4.06,0s2-.24,2-1.77c.11-2.51,1.12-3.35,3.63-3.37,2.71,0,5.42,0,8.12,0,3,0,3.83.76,3.91,3.78,0,.94.29,1.37,1.29,1.36,3.21,0,6.42,0,9.63,0A1.17,1.17,0,0,0,51,19.33a35.58,35.58,0,0,0,.18-6.46A8,8,0,0,0,43.9,5.56c-3-.24-5.15,1.14-7.31,2.9a8.84,8.84,0,0,1-11.26.06c-.68-.52-1.31-1.1-2-1.59-4.8-3.39-12.08-.29-12.57,5.43-.19,2.24,0,4.51,0,6.76,0,1,.52,1.42,1.53,1.39C13.86,20.47,15.42,20.51,17,20.51Zm74.09,0h5c.65,0,1.21-.07,1.26-.92a47.65,47.65,0,0,0,.28-6.45,8.14,8.14,0,0,0-8.2-7.6,9,9,0,0,0-6.18,2.69,8.91,8.91,0,0,1-5.91,2.23c-2.88.08-5-1.33-7.13-3.07a7.69,7.69,0,0,0-8.6-1.09c-3.13,1.43-4.59,4-4.73,7.44-.08,1.81.19,3.6.26,5.4,0,1.05.45,1.39,1.46,1.38,3.06,0,6.12-.06,9.18,0,1.28,0,1.62-.46,1.62-1.67,0-2.46,1.06-3.45,3.51-3.47,2.76,0,5.52,0,8.28,0,3,0,3.87.79,4,3.79,0,1.09.49,1.38,1.47,1.35C88.06,20.48,89.56,20.51,91.07,20.51Zm18.5,0c1.45,0,2.91-.07,4.36,0,1.29.08,1.77-.33,1.74-1.69-.06-2.47,1-3.43,3.46-3.45,2.71,0,5.42,0,8.13,0,3,0,3.89.72,4.1,3.69.08,1.12.5,1.47,1.57,1.45,3,0,6-.05,9,0,1.16,0,1.67-.43,1.68-1.56,0-2,.13-4,.06-6a7.42,7.42,0,0,0-4-6.35,8,8,0,0,0-9.5,1A10.31,10.31,0,0,1,123,10.46c-2.64-.1-4.61-1.43-6.54-3a8,8,0,0,0-13.06,4.12,21.69,21.69,0,0,0,0,8.07c.11.83.69.87,1.32.87ZM30.9,25.64c2.52,0,2.52,0,2.52-2.21,0-2.5,0-2.5-2.24-2.5-2.66,0-2.66,0-2.67,2.22C28.51,25.64,28.51,25.64,30.9,25.64Zm92.59,0c2.4,0,2.4,0,2.41-2.33s0-2.39-2.5-2.39-2.41,0-2.41,2.48C121,25.64,121,25.64,123.49,25.64Zm-46.19,0c2.26,0,2.26,0,2.26-2.34s0-2.38-2.37-2.38-2.34,0-2.34,2.41S74.85,25.64,77.3,25.64Zm-23,8.94h-.35c-.34,1.19-.7,2.37-1,3.56-.08.3-.38.81.1.89a6.79,6.79,0,0,0,2.2-.06c.31-.05.19-.51.1-.8Z"/></g></g></g></svg>