<svg xmlns="http://www.w3.org/2000/svg" viewBox="0 0 384.28 384.33"><title>Asset 50</title><g id="Layer_2" data-name="Layer 2"><g id="Capa_6" data-name="Capa 6"><path d="M.78,234.33a14.46,14.46,0,0,1,7.11-4.17c17.57-4.94,35.16-9.82,52.64-15.06,11-3.29,21.79-5.18,32.81-.72,1-1.63,0-2.79-.3-4-1.21-4.91-2.65-9.77-3.8-14.7-1.48-6.35,1.21-9.6,7.84-9.66,5.33,0,10.67-.17,16,.05,3,.13,4.26-1.07,4.92-3.87,2.36-10,5.1-19.88,7.32-29.89,2.28-10.27,9.65-17.85,22.59-17.65,30.26.45,60.52.14,90.79.15,11.46,0,18.23,5.14,21.12,16.23,2.66,10.18,5.24,20.39,7.59,30.64.77,3.37,2.28,4.57,5.73,4.4,5.32-.27,10.66-.13,16,0,5.8.09,8.57,3.52,7.27,9.14-1.44,6.21-3.11,12.37-4.77,18.91,4.54-.7,8.76-2.27,13.27-2.47,10.15-.45,19.34,3.45,28.81,6,14.66,4,29.22,8.31,43.82,12.48,6.35,1.82,7.52,3.32,7.53,9.85q0,68,0,136c0,7.06-2,9-9,9q-183.18,0-366.36.06c-3.58,0-6.56-.74-8.87-3.53ZM192.65,371.65q87.18,0,174.37.07c3.67,0,4.85-1,4.76-4.74-.24-9.59-.08-19.19-.08-28.79q0-45.59,0-91.18c0-2.37,0-4.36-3-5.19-18.48-5.14-36.87-10.61-55.4-15.58a27.13,27.13,0,0,0-29,10.7,8.85,8.85,0,0,0-1.8,4.76c-.45,8.51-1.06,17-1.51,25.52-1.15,21.54-2.18,43.09-3.4,64.63-.84,14.79-11.92,26.71-25.28,27.5-15.61.92-28.33-8.91-30.79-24.21-2.68-16.69-5-33.44-7.5-50.16-2.06-13.69-4-27.4-6.38-41a14.84,14.84,0,0,0-18.59-11.8c-7.55,2-10.93,7.53-12,14.84q-6.5,43.65-13,87.3c-2.09,14.26-13.28,24.87-26.77,25.11-15.34.27-27.15-8.9-28.9-24.14-1.79-15.59-2.14-31.34-3-47s-1.69-31.12-2.48-46.68a8.52,8.52,0,0,0-1.9-4.72c-7-9.6-18.38-13.55-30.56-10.2C53.3,231.37,36.19,236.5,19,241.18c-3.9,1.06-5.22,2.67-5.21,6.79.16,39.33.1,78.65.1,118,0,5.7,0,5.71,5.63,5.71Zm5.22-185.6h51.59c4.95,0,5,0,3.74-5q-3.18-12.8-6.39-25.59c-1.51-6-3.14-7.29-9.53-7.29q-44.39,0-88.78,0c-6.83,0-8.2,1.12-9.88,7.85q-4.44,17.84-8.9,35.67c-1.59,6.35-3.26,7.65-9.69,7.67-3.87,0-7.75.23-11.59-.06s-4.19,1.24-3.26,4.4c2.19,7.41,4.58,14.76,7.29,22,1.87,5,4.06,9.85,4.33,15.3.51,10.51,1.12,21,1.7,31.52,1.09,19.81,2.13,39.63,3.3,59.43a15.18,15.18,0,0,0,13.65,14c7,.52,13.59-4.84,14.77-12.47q6.89-44.8,13.57-89.64c2.23-14.86,14.15-25.68,28.57-25.78,15.05-.11,27,10,29.33,25.23,2.81,18.15,5.44,36.34,8.18,54.51,1.83,12.11,3.56,24.24,5.65,36.3,1.2,6.94,8.16,12.3,14.6,11.88a14.84,14.84,0,0,0,13.71-14.14c.45-7.71,1.06-15.41,1.47-23.12,1.18-22.08,2.27-44.15,3.44-66.23a37.53,37.53,0,0,1,2.56-12A237.07,237.07,0,0,0,280,204.72c1.44-5.3,1.43-5.31-3.88-5.31q-63.39,0-126.77,0c-9.09,0-8,1.18-8-8.12,0-5.19,0-5.21,5.37-5.21Z" transform="translate(-0.78 -0.73)"/><path d="M256,.73c12.14,2.63,22.9,7.76,31.41,17.09,9.26,10.16,14.22,22,14.48,35.84a220.09,220.09,0,0,1-4.81,49.19c-1.1,5.28-3.06,6.94-8.51,6.94q-95.76,0-191.53,0c-5.43,0-7.4-1.67-8.5-7a227.28,227.28,0,0,1-4.84-48.39A54.35,54.35,0,0,1,125,2c1.55-.39,3.08-.82,4.62-1.23h17.6c5.81,1.49,11.39,3.67,17,5.68a82.49,82.49,0,0,0,55.61.53c6.43-2.17,12.68-4.85,19.37-6.21ZM192.59,96.45c28.93,0,57.85-.1,86.78.11,4.21,0,5.63-1.45,6-5.3.56-5.83,1.82-11.6,2.12-17.43.47-9.28,1.93-18.59-.19-27.86-5.47-24-31.15-38.87-56.21-28.61q-38.28,15.66-76.64,0a44.44,44.44,0,0,0-21.51-2.94c-17.6,1.73-33.6,17.53-35.19,35.12-1.32,14.58.68,28.95,2.73,43.32.45,3.17,2.18,3.65,5,3.64Q149,96.39,192.59,96.45Z" transform="translate(-0.78 -0.73)"/><path d="M109.28,60.71c.56-11.88,6.91-23.39,19-31.83,2.57-1.8,4.38-2.14,5.89,1.17,1.16,2.54,3.53,4.82,3.8,7.38.33,3.11-3.65,3.69-5.58,5.53-6.6,6.28-9.55,13.95-9.71,22.87-.1,5.57-.09,5.62-5.81,5.58C108.43,71.33,109.38,72.38,109.28,60.71Z" transform="translate(-0.78 -0.73)"/></g></g></svg>