<svg xmlns="http://www.w3.org/2000/svg" viewBox="0 0 27.4 27.4"><defs><style>.cls-1{fill:#fff;}</style></defs><title>Asset 10</title><g id="Layer_2" data-name="Layer 2"><g id="Capa_6" data-name="Capa 6"><g id="_Group_" data-name="&lt;Group&gt;"><g id="_Group_2" data-name="&lt;Group&gt;"><path id="_Compound_Path_" data-name="&lt;Compound Path&gt;" class="cls-1" d="M13.7,0A13.7,13.7,0,1,0,27.4,13.7,13.7,13.7,0,0,0,13.7,0Zm.95,15.37a.92.92,0,0,1,0,.11s0,.05,0,.08l0,.08,0,.1v0l-.07.12h0l-.1.12,0,0-.1.08,0,0-.14.08h0l-.13,0h0l-.17,0h0l-.16,0,0,0-.14,0h0L8,13.74A.95.95,0,0,1,8.85,12l3.9,1.84V5.68a.95.95,0,1,1,1.89,0v9.67h0Z"/></g></g></g></g></svg>