<svg xmlns="http://www.w3.org/2000/svg" viewBox="0 0 43.5 60"><defs><style>.cls-1{fill:#fff;}</style></defs><title>Asset 40</title><g id="Layer_2" data-name="Layer 2"><g id="Layer_7" data-name="Layer 7"><g id="_Group_" data-name="&lt;Group&gt;"><path id="_Path_" data-name="&lt;Path&gt;" class="cls-1" d="M39,37,26.31,60H43.5V46A11.07,11.07,0,0,0,39,37Z"/><path id="_Path_2" data-name="&lt;Path&gt;" class="cls-1" d="M4.54,37A11.07,11.07,0,0,0,0,46V60H17.2Z"/><g id="_Group_2" data-name="&lt;Group&gt;"><circle id="_Path_3" data-name="&lt;Path&gt;" class="cls-1" cx="21.75" cy="9.93" r="1.46"/><path id="_Path_4" data-name="&lt;Path&gt;" class="cls-1" d="M21.75,5a5,5,0,0,1,4.92,4.32H34.5C33.62,2.87,30.21,0,21.75,0S9.88,2.87,9,9.33h7.83A5,5,0,0,1,21.75,5Z"/><path id="_Compound_Path_" data-name="&lt;Compound Path&gt;" class="cls-1" d="M21.75,5.69A4.23,4.23,0,1,0,26,9.93,4.23,4.23,0,0,0,21.75,5.69Zm0,5.69a1.46,1.46,0,1,1,1.46-1.46A1.46,1.46,0,0,1,21.75,11.39Z"/><path id="_Path_5" data-name="&lt;Path&gt;" class="cls-1" d="M35.11,14.63a.69.69,0,0,0-.4,0c0-.4,0-.8,0-1.21,0-1,0-1.93-.11-2.81h-8a5,5,0,0,1-9.83,0h-8c-.07.88-.11,1.81-.11,2.81,0,.41,0,.81,0,1.21a.68.68,0,0,0-.4,0c-.81.25-.94,2.17-.3,4.29s1.79,3.59,2.6,3.4c2.29,4.83,6.39,8.05,11.06,8.05s8.77-3.22,11.06-8.05c.81.19,2-1.31,2.59-3.4S35.92,14.87,35.11,14.63Z"/></g><g id="_Group_3" data-name="&lt;Group&gt;"><path id="_Path_6" data-name="&lt;Path&gt;" class="cls-1" d="M32.41,34.89h-3.6V45.16a1.75,1.75,0,0,1-1.75,1.75H16.45a1.75,1.75,0,0,1-1.75-1.75V34.89h-3.6A11,11,0,0,0,6.21,36L19.42,60h4.66L37.3,36A11,11,0,0,0,32.41,34.89Z"/><path id="_Path_7" data-name="&lt;Path&gt;" class="cls-1" d="M15.5,36.68a1.74,1.74,0,0,1,.95-.28H27.06a1.74,1.74,0,0,1,.95.28V34.89H26.23v-4a10.22,10.22,0,0,1-9,0v4H15.5Z"/></g></g></g></g></svg>