<svg xmlns="http://www.w3.org/2000/svg" viewBox="0 0 62.77 60"><defs><style>.cls-1{fill:#fff;}</style></defs><title>Asset 30</title><g id="Layer_2" data-name="Layer 2"><g id="Layer_7" data-name="Layer 7"><g id="_Group_" data-name="&lt;Group&gt;"><rect id="_Path_" data-name="&lt;Path&gt;" class="cls-1" x="23.45" y="45.7" width="15.37" height="14.3"/><polygon id="_Path_2" data-name="&lt;Path&gt;" class="cls-1" points="40.66 60 56.37 60 56.37 51.66 40.66 46.43 40.66 60"/><path id="_Compound_Path_" data-name="&lt;Compound Path&gt;" class="cls-1" d="M62.77,22.55V14.34H48.32v3.3H39.77V4.27a1,1,0,0,0-1-1H29.21a4.15,4.15,0,1,0-.06,2h8.57V32.63H30.59a1.37,1.37,0,0,0-1,.4L27.4,35.25a1.37,1.37,0,0,0-.4,1v2.55H25.66L4.71,16.65a2.73,2.73,0,1,0-4,3.76L23.31,44.22h16l17.48,5.67a2.73,2.73,0,0,0,1.69-5.2l-18.3-5.93H29.73v-2l1.42-1.42h6.57v2.33h2V35.36h2.14a1.37,1.37,0,1,0,0-2.73H39.77V19.46h8.55v3.09Zm-13-6.83H61.37v5.69H49.76ZM25.16,7.06a2.9,2.9,0,1,1,2.9-2.9A2.9,2.9,0,0,1,25.16,7.06Z"/></g></g></g></svg>