<svg xmlns="http://www.w3.org/2000/svg" viewBox="0 0 22.54 60"><defs><style>.cls-1{fill:#fff;}</style></defs><title>Asset 20</title><g id="Layer_2" data-name="Layer 2"><g id="Layer_7" data-name="Layer 7"><g id="_Group_" data-name="&lt;Group&gt;"><rect id="_Path_" data-name="&lt;Path&gt;" class="cls-1" x="13.66" y="34.15" width="7.51" height="25.85" rx="0.42" ry="0.42"/><rect id="_Path_2" data-name="&lt;Path&gt;" class="cls-1" x="13.7" y="30.19" width="7.43" height="3.2" rx="0.42" ry="0.42"/><rect id="_Path_3" data-name="&lt;Path&gt;" class="cls-1" x="13.7" y="26.3" width="7.43" height="3.2" rx="0.42" ry="0.42"/><rect id="_Path_4" data-name="&lt;Path&gt;" class="cls-1" y="34.15" width="7.51" height="25.85" rx="0.42" ry="0.42"/><rect id="_Path_5" data-name="&lt;Path&gt;" class="cls-1" x="0.04" y="30.19" width="7.43" height="3.2" rx="0.42" ry="0.42"/><rect id="_Path_6" data-name="&lt;Path&gt;" class="cls-1" x="0.04" y="26.3" width="7.43" height="3.2" rx="0.42" ry="0.42"/><path id="_Path_7" data-name="&lt;Path&gt;" class="cls-1" d="M3.19,1.15a.42.42,0,0,0-.6,0l-1,1a.42.42,0,0,0,0,.6L4.93,6.16,2.77,8.32a.42.42,0,0,0-.12.3V25.35a.42.42,0,0,0,.42.42H4.53A.42.42,0,0,0,5,25.35V9.4L7.9,6.45a.42.42,0,0,0,0-.6Z"/><path id="_Compound_Path_" data-name="&lt;Compound Path&gt;" class="cls-1" d="M17.42,0a5.12,5.12,0,0,0-1.06,10.12V24.88a.42.42,0,0,0,.42.42h1.28a.42.42,0,0,0,.42-.42V10.12A5.12,5.12,0,0,0,17.42,0Zm0,8.6A3.48,3.48,0,1,1,20.9,5.12,3.48,3.48,0,0,1,17.42,8.6Z"/></g></g></g></svg>