<svg xmlns="http://www.w3.org/2000/svg" viewBox="0 0 82.87 120.36"><defs><style>.cls-1{fill:#fff;}.cls-2{fill:#75716f;}</style></defs><title>Asset 10</title><g id="Layer_2" data-name="Layer 2"><g id="Layer_7" data-name="Layer 7"><path id="_Path_" data-name="&lt;Path&gt;" class="cls-1" d="M69.64,38.89c0,1.44.06,2.86,0,4.27-.1,1.89-.27,3.78-.47,5.66a39.65,39.65,0,0,1-2.3,9.73,45.53,45.53,0,0,0-2.6,9.3A21.63,21.63,0,0,0,64,71.58c.19,6,.47,11.9.65,17.85a70.25,70.25,0,0,1-.3,11.4,14.7,14.7,0,0,1-1,3.32,43.21,43.21,0,0,1-4.5,8.89,12.38,12.38,0,0,1-3.68,3.79,4.08,4.08,0,0,1-5.71-1.07,11.09,11.09,0,0,1-1.91-4.16,42.58,42.58,0,0,1-1-12.59c.09-2.25.07-4.5.07-6.75,0-4,.13-8.06-.07-12.08a9.82,9.82,0,0,0-5.9-8.7,4.74,4.74,0,0,0-6,1.28,16.61,16.61,0,0,0-3,5.18,12.62,12.62,0,0,0-.87,4.4c-.17,4.33-.36,8.65-.56,13q-.32,7.17-.67,14.34c-.06,1.25-.07,2.51-.23,3.75a6.13,6.13,0,0,1-7.7,5.23,13.72,13.72,0,0,1-9.74-8.34,34.34,34.34,0,0,1-2.35-9.86,65.7,65.7,0,0,1-.08-12.11c.14-1.73.48-3.44.73-5.16A48.12,48.12,0,0,0,10.51,72a56.72,56.72,0,0,0-2.82-13.5,31.7,31.7,0,0,0-2.45-5.21A32.66,32.66,0,0,1,3,48.08a25.47,25.47,0,0,1-1.45-9A19.32,19.32,0,0,1,8.26,24.57a19,19,0,0,1,5.86-3.74A11.37,11.37,0,0,1,24.9,22.11a24.76,24.76,0,0,1,7.66,8.45l.3.52,1.48-.75a27,27,0,0,0-9.18-10.05c.67-.67,1.26-1.36,1.94-1.95A16.83,16.83,0,0,1,34,14.91a24.18,24.18,0,0,1,7.84-.75,33.18,33.18,0,0,1,8.27,1.7c-.54.72-1.06,1.4-1.56,2.09-1,1.38-2,2.76-3,4.17a6.55,6.55,0,0,0-.75,5.27,8.73,8.73,0,0,0,2.4,4.38c1.18,1.2,1.1,2.22-.11,3.4q-5.88,5.71-11.72,11.45a5.32,5.32,0,0,0-.62.74,2.39,2.39,0,0,0,0,3.06,11.62,11.62,0,0,0,3.77,3.25,2.37,2.37,0,0,0,3.24-.74c.77-.88,1.53-1.76,2.33-2.61q4.81-5.09,9.63-10.16a2,2,0,0,1,3-.1,9.69,9.69,0,0,0,4.38,2.34A6.38,6.38,0,0,0,64.7,42a14.39,14.39,0,0,0,4.42-2.63Z"/><path id="_Compound_Path_" data-name="&lt;Compound Path&gt;" class="cls-2" d="M82.14,7A9.83,9.83,0,0,0,76,.76a12.43,12.43,0,0,0-9.52.42,30,30,0,0,0-8.41,5.58A62.8,62.8,0,0,0,51.16,14a.78.78,0,0,1-.47.33l-.07.06-.05,0a34.59,34.59,0,0,0-8.65-1.77c-.58,0-1.17-.06-1.75-.06a25.69,25.69,0,0,0-6.58.86,18.28,18.28,0,0,0-7.48,3.75c-.52.45-1,.94-1.43,1.41l-.6.62-.46.46a12.74,12.74,0,0,0-5.29-1.18,13.29,13.29,0,0,0-4.75.91,20.43,20.43,0,0,0-6.34,4A20.87,20.87,0,0,0,0,39.09a27.05,27.05,0,0,0,1.54,9.49A34,34,0,0,0,3.92,54a30.71,30.71,0,0,1,2.33,5A55.46,55.46,0,0,1,9,72.11,46.84,46.84,0,0,1,8.7,82.94c-.08.51-.16,1-.25,1.55-.2,1.2-.4,2.45-.5,3.71A66.84,66.84,0,0,0,8,100.59a35.48,35.48,0,0,0,2.46,10.3,15.22,15.22,0,0,0,10.77,9.22,8.08,8.08,0,0,0,2,.25,7.63,7.63,0,0,0,7.6-6.76c.13-1,.17-2,.2-2.94,0-.31,0-.62,0-.93.2-4.24.44-9.26.67-14.35l0-.67c.18-4,.37-8.21.53-12.32a11,11,0,0,1,.75-3.87,15,15,0,0,1,2.73-4.72,3.57,3.57,0,0,1,2.6-1.35,3.66,3.66,0,0,1,1.58.41,8.28,8.28,0,0,1,5,7.4c.15,2.85.12,5.79.09,8.63,0,1.1,0,2.24,0,3.37q0,.55,0,1.11c0,1.83,0,3.73-.07,5.58a44.52,44.52,0,0,0,1,13,12.47,12.47,0,0,0,2.18,4.72,5.74,5.74,0,0,0,4.52,2.37,6.11,6.11,0,0,0,3.17-.94,13.93,13.93,0,0,0,4.15-4.23,44,44,0,0,0,4.66-9.2l.12-.31a14.29,14.29,0,0,0,1-3.37,71.11,71.11,0,0,0,.31-11.65c-.09-3.08-.22-6.2-.34-9.22-.11-2.83-.23-5.76-.32-8.63a20.09,20.09,0,0,1,.24-3.47,44.46,44.46,0,0,1,2.53-9A41.41,41.41,0,0,0,70.67,49c.24-2.31.38-4.08.47-5.74.05-1,0-2.05,0-3,0-.43,0-.88,0-1.31V37l.06-.1a56.64,56.64,0,0,0,8.44-12.3,30.09,30.09,0,0,0,3.08-10.54A16.57,16.57,0,0,0,82.14,7ZM65.37,35.27c1.14.5,2.33.89,3.5,1.32a.5.5,0,0,1,.38.64l-.58.48-.15.13-.37.31a16.81,16.81,0,0,1-1.63,1.2l-.17,0a34.38,34.38,0,0,1-15-9.89,30,30,0,0,1-4.43-6.55c.65-.95,1.33-1.9,2-2.83.6,1.05,1.17,2.09,1.82,3.06A33.46,33.46,0,0,0,65.37,35.27Zm4.25,7.89c-.1,1.89-.27,3.78-.47,5.66a39.65,39.65,0,0,1-2.3,9.73,45.53,45.53,0,0,0-2.6,9.3A21.63,21.63,0,0,0,64,71.58c.19,6,.47,11.9.65,17.85a70.24,70.24,0,0,1-.3,11.4,14.69,14.69,0,0,1-1,3.32,43.21,43.21,0,0,1-4.5,8.89,12.38,12.38,0,0,1-3.68,3.79,4.62,4.62,0,0,1-2.38.72,4.21,4.21,0,0,1-3.32-1.79,11.09,11.09,0,0,1-1.91-4.16,42.58,42.58,0,0,1-1-12.59c.09-2.25.07-4.5.07-6.75,0-4,.13-8.06-.07-12.08a9.82,9.82,0,0,0-5.9-8.7,5.14,5.14,0,0,0-2.25-.56,5.07,5.07,0,0,0-3.72,1.84,16.61,16.61,0,0,0-3,5.18,12.62,12.62,0,0,0-.87,4.4c-.17,4.33-.36,8.65-.56,13q-.32,7.17-.67,14.34c-.06,1.25-.07,2.51-.23,3.75a6.12,6.12,0,0,1-6.09,5.43,6.55,6.55,0,0,1-1.61-.2,13.72,13.72,0,0,1-9.74-8.34,34.34,34.34,0,0,1-2.35-9.86,65.7,65.7,0,0,1-.08-12.11c.14-1.73.48-3.44.73-5.16A48.12,48.12,0,0,0,10.51,72a56.72,56.72,0,0,0-2.82-13.5,31.7,31.7,0,0,0-2.45-5.21A32.66,32.66,0,0,1,3,48.08a25.47,25.47,0,0,1-1.45-9A19.32,19.32,0,0,1,8.26,24.57a19,19,0,0,1,5.86-3.74A11.72,11.72,0,0,1,18.33,20a12,12,0,0,1,6.57,2.09,24.76,24.76,0,0,1,7.66,8.45l.3.52,1.48-.75a27,27,0,0,0-9.18-10.05c.67-.67,1.26-1.36,1.94-1.95A16.83,16.83,0,0,1,34,14.91a24.07,24.07,0,0,1,6.19-.81q.82,0,1.65.05a32.72,32.72,0,0,1,7.77,1.55l-.06.11.13,0c-.54.72-1.06,1.4-1.56,2.09-1,1.38-2,2.76-3,4.17a6.55,6.55,0,0,0-.75,5.27,8.73,8.73,0,0,0,2.4,4.38C48,33,47.9,34,46.69,35.17Q40.81,40.87,35,46.62a5.32,5.32,0,0,0-.62.74,2.39,2.39,0,0,0,0,3.06,11.62,11.62,0,0,0,3.77,3.25,2.42,2.42,0,0,0,1.43.34l.24,0a2.68,2.68,0,0,0,2-1.1c.77-.88,1.53-1.76,2.33-2.61q4.81-5.09,9.63-10.16a2.2,2.2,0,0,1,1.35-.72,2.28,2.28,0,0,1,1.26.63A9.69,9.69,0,0,0,60.7,42.4a4.24,4.24,0,0,0,1.19.1h.2A8,8,0,0,0,64.7,42a14.39,14.39,0,0,0,4.42-2.63l.52-.43C69.64,40.33,69.7,41.75,69.62,43.16Z"/><path id="_Path_2" data-name="&lt;Path&gt;" class="cls-1" d="M49.93,10.87c.93,1.58,1.74,3.13,2.71,4.58A40.38,40.38,0,0,0,70.32,30.13c1.38.61,2.81,1.07,4.23,1.6a.6.6,0,0,1,.24,1.07c-.86.75-1.74,1.48-2.64,2.17a.83.83,0,0,1-.66,0A41.49,41.49,0,0,1,53.37,23.07a36.18,36.18,0,0,1-5.59-8.36.77.77,0,0,1,.08-.93C48.57,12.83,49.24,11.85,49.93,10.87Z"/></g></g></svg>