<svg xmlns="http://www.w3.org/2000/svg" viewBox="0 0 28.5 28.43"><defs><style>.cls-1{fill:#fff;}</style></defs><title>Asset 40</title><g id="Layer_2" data-name="Layer 2"><g id="Layer_7" data-name="Layer 7"><g id="_Group_" data-name="&lt;Group&gt;"><g id="_Group_2" data-name="&lt;Group&gt;"><path id="_Path_" data-name="&lt;Path&gt;" class="cls-1" d="M27.86,22.49l-4.4-4.4a2.3,2.3,0,0,0-3.24.06L18,20.36l-.44-.24a22.06,22.06,0,0,1-5.33-3.86,22.19,22.19,0,0,1-3.86-5.34l-.24-.43L9.62,9l.73-.73A2.29,2.29,0,0,0,10.41,5L6,.64A2.29,2.29,0,0,0,2.77.7L1.53,1.95l0,0a7.16,7.16,0,0,0-1,1.8A7.47,7.47,0,0,0,.09,5.61c-.58,4.82,1.62,9.22,7.59,15.19,8.26,8.26,14.91,7.63,15.2,7.6a7.44,7.44,0,0,0,1.83-.46,7.16,7.16,0,0,0,1.8-1l0,0,1.26-1.23A2.3,2.3,0,0,0,27.86,22.49Z"/></g></g></g></g></svg>