<svg xmlns="http://www.w3.org/2000/svg" viewBox="0 0 293.6 384.28"><title>Asset 80</title><g id="Layer_2" data-name="Layer 2"><g id="Capa_6" data-name="Capa 6"><path d="M3.69,384.28C.92,382,.12,379,.13,375.42c.1-30.93.05-61.85.06-92.78,0-6.67,1.07-8,7.44-9.87,9.61-2.75,19.23-5.44,28.81-8.28,4.55-1.35,9.1-2.13,13.76-.9,2.3.6,2.79-.17,2.64-2.37-.41-6.22-2.79-11.89-4.66-17.71-.62-1.92-2.08-2.08-3.79-2.17C18.66,239.92.28,220.66.2,194.91c-.07-25.19-.48-50.4.11-75.58C1.2,81.32,19.18,53.27,52,34.51c5.55-3.17,11.37-5.86,17.1-8.71,12.74-6.34,26.29-8.38,40-5.23,7.84,1.8,15.25,1.12,22.86.1q47.1-6.3,94.2-12.66Q254.45,4.18,282.73.26c8-1.11,10.85,1.28,10.86,9.35q0,17,0,34c0,6.5-1.71,8.56-8.19,9.51-15.41,2.25-30.83,4.39-46.25,6.58q-25.9,3.67-51.8,7.31c-2.4.33-3.2,1.13-2.16,3.67,3.27,8,1.63,7.09,10.06,7.1q43.59.06,87.18,0a27,27,0,0,1,5.17.28c3.69.73,6,2.93,6,6.88,0,12.93.08,25.86,0,38.79,0,4.39-2.6,6.81-7,7.12-1.33.09-2.66,0-4,0h-80c-6.57,0-6.57,0-6.58,6.38,0,19.6.06,39.19,0,58.79A45.42,45.42,0,0,1,152.2,241.3c-2.51.09-3.88.83-4.63,3.31-1.62,5.34-3.72,10.52-4.2,16.19-.23,2.65.32,3.4,3,2.69,4.1-1.08,8.18-.51,12.21.66,10.11,2.92,20.23,5.79,30.35,8.7,5.81,1.67,7,3.29,7.05,9.39,0,31.06,0,62.12.06,93.18,0,3.59-.79,6.54-3.54,8.88ZM209.12,116.92c22,0,44-.06,66,.06,3.47,0,4.79-1.07,4.63-4.58-.22-5.06,0-10.13-.06-15.19,0-5.45,0-5.46-5.59-5.46H159.31c-7.2,0-9-1.7-9.53-8.69-.12-1.59-.42-3.17-.62-4.75C144.93,44,108.61,24,77.16,37.4a164.58,164.58,0,0,0-22,11.36C29.4,64.71,15,87.82,14.29,118.29c-.64,25.85-.27,51.72-.13,77.58.07,13.63,6.85,23.19,19,29,5.06,2.42,5.68,2,5.68-3.52q0-39.79,0-79.59c0-9.46,0-18.93,0-28.39,0-3.84,1.11-7.29,5.37-8.34s6.69,1.3,8.69,4.73c18,30.86,57,35.94,82.44,10.72a11.71,11.71,0,0,1,8.9-3.6C165.93,117,187.52,116.92,209.12,116.92ZM97.79,370.64h78.76c5.48,0,5.5,0,5.5-5.63,0-23.19.07-46.38,0-69.56-.05-12.29,1.74-9.42-9.73-12.86-6.12-1.83-12.24-3.72-18.46-5.16-6-1.4-9.33,1.13-10,7.05-.59,5.29-1,10.59-1.55,15.89-1.3,13.64-2.37,27.31-4,40.92-1,8.49-6.26,14-14.37,16.45s-15.24,0-21-6.18c-4.63-5-5.1-5-9.89.11s-10.79,7.84-17.91,6.7c-10.89-1.74-17-9.24-18-21.18-1.48-17.24-3.1-34.46-4.73-51.68-.69-7.3-4.22-9.73-11.44-7.79-7.46,2-14.82,4.39-22.31,6.25-3.52.87-4.62,2.56-4.61,6.1.13,25.05.06,50.11.07,75.16,0,5.31.1,5.41,5.33,5.41ZM78,280.85h0c0-8.79-.12-17.59,0-26.38.16-9,5.45-16.36,13.29-19.11a20,20,0,0,1,22.11,6.05c3.64,4.3,4.77,9.42,4.77,14.89q0,24.58,0,49.17a28.61,28.61,0,0,0,.19,4,2.74,2.74,0,0,0,2.67,2.52,2.8,2.8,0,0,0,3.08-2,13.51,13.51,0,0,0,.76-3.09c1.16-11.65,2.17-23.32,3.42-35,1-9.5,1.32-19.08,4.82-28.23,3.37-8.83,6.09-17.9,9-26.89a17.41,17.41,0,0,0,1.11-5c.11-8.13.17-16.26,0-24.38-.15-7-2.73-12.83-9.49-15.84-7-3.12-13.09-1.25-18.76,3.64-10.37,8.93-23.44,8.85-33.88.11a23.36,23.36,0,0,0-5.56-3.85c-11.33-4.92-22.26,3-22.85,16.21-.71,16,.16,31.63,6.93,46.48,1.48,3.25,2.16,6.86,3.48,10.2,2.68,6.79,3.37,13.9,4,21.09,1.24,14,2.68,28.08,4.14,42.11.22,2.1.73,4.54,3.62,4.42s3-2.52,3-4.71Q78,294,78,280.85ZM279.68,27.54c0-2.93-.08-5.86,0-8.79s-.77-3.91-4-3.45c-20.94,2.95-41.91,5.63-62.87,8.45q-35,4.71-70,9.5c-.87.12-2.12-.22-2.38.93s.84,1.58,1.51,2.19a60.87,60.87,0,0,1,13.48,17.21c1.49,2.92,3.45,3.68,6.43,3.18,4.85-.81,9.72-1.53,14.59-2.22,32.65-4.64,65.3-9.31,98-13.81,4.16-.57,5.84-2.21,5.27-6.4A51.85,51.85,0,0,1,279.68,27.54ZM157.3,178.7c0,14.64.05,29.29,0,43.93,0,3.51,1.25,4.21,4.33,2.9,11.76-5,19.62-13.68,20.11-26.47.83-21.53.28-43.12.37-64.69,0-2.59-1.07-3.53-3.61-3.48-5.32.1-10.66.25-16,0-4-.23-5.36,1-5.29,5.13C157.43,150.21,157.29,164.46,157.3,178.7Zm-13.93-45.86c-30.45,23.6-60.36,23.42-90.58.23,0,8.6,0,16.58,0,24.56,0,2.24.46,2.85,2.73,1.77,12.74-6.05,24.25-3.85,34.73,5.31,5.14,4.49,10.58,4.41,15.82-.08a35.83,35.83,0,0,1,8.92-6,29.1,29.1,0,0,1,25.47.61c1.64.8,3,1.55,3-1.38C143.32,149.78,143.37,141.67,143.37,132.84ZM74.07,326.1c-3.84-1.2-4.06,1.21-3.65,4.34.33,2.5.49,5,.78,7.54.34,3,1.63,5.32,4.64,6.39s5.6-.15,7.36-2.55c7.67-10.45,22.12-10.35,29.68-.05,1.66,2.26,4,3.59,7,2.75,3.28-.91,4.66-3.37,5.06-6.49.37-2.9.52-5.83.89-8.73.31-2.51-.26-3.49-3.17-3.32-7.83.46-14.26-2.74-16.76-10.22-1.75-5.25-4-6.83-9.32-6.39-3,.25-4.4.44-5.2,3.67C89.3,321.28,82.66,326.16,74.07,326.1Zm30.16-52.75h0c0-6.12.12-12.25,0-18.37-.12-4.69-2.95-7.21-7.1-6.55-3.91.62-5.12,3.4-5.12,7q0,16.78,0,33.55c0,6.47.16,6.62,6.75,6.5.53,0,1.07-.08,1.6-.06,2.83.11,4.06-1.09,4-4.05C104.12,285.33,104.23,279.34,104.23,273.35ZM168.73,77.42c.58-.4,3.28,1.73,3.53-1.31.23-2.85-3-6.1-5.62-6-1.92.08-4.32-.18-4.16,2.87C162.65,76.37,163.89,78.71,168.73,77.42Z"/><path d="M98.15,52a32.86,32.86,0,0,1,32.93,32.73C131.11,102.86,116,118,98,118a33.38,33.38,0,0,1-32.9-33.36A32.82,32.82,0,0,1,98.15,52Zm.5,52c.58-.1,1.9-.26,3.18-.58,1.1-.28,2.71-.05,3-1.44.23-1.08-1.11-1.69-1.84-2.42Q93.27,89.8,83.5,80.1c-.78-.77-1.39-2.36-2.78-1.76-1.15.5-1.15,2-1.38,3.17C77,92.71,86.25,103.87,98.65,104Zm-.5-37.93c-.8,0-1.6,0-2.39,0-1.46.09-3.33,0-3.94,1.38C91.09,69.1,93,69.91,94,70.87q9.24,9.38,18.62,18.63c.8.79,1.48,2.26,2.84,1.77s1.14-2,1.36-3.14C119.15,76.72,110.08,66,98.15,66.08Z"/></g></g></svg>