<svg xmlns="http://www.w3.org/2000/svg" viewBox="0 0 384.57 384.28"><title>Asset 70</title><g id="Layer_2" data-name="Layer 2"><g id="Capa_6" data-name="Capa 6"><path d="M259.48,0c4.54,3.37,3.42,8.3,3.46,12.87.06,6.05,0,6.05,6.09,6.05H375.41c7.3,0,9.13,1.88,9.14,9.29q0,10.4,0,20.79c0,6.85-2,8.86-8.77,8.87H268.61c-5.65,0-5.65,0-5.66,5.68,0,13.38-.16,13.44-13.72,13.57-3.79,0-8.59-1.73-11.12,1-2.33,2.48-.71,7.15-.72,10.84-.07,26.13,0,52.25,0,78.38,0,5.75,0,5.79-5.63,5.76C223,173,224,174,224,165.4c0-27.86-.07-55.72.05-83.58,0-3.57-.84-5.07-4.67-4.82-4.64.31-9.33.15-14,0-4.51-.11-7-2.48-7-7-.07-21.06,0-42.12-.07-63.18,0-3,1.61-5,3.51-6.86ZM211.76,38.19c0,7.05.12,14.11-.06,21.15-.08,3.16.73,4.52,4.2,4.45,9.84-.2,19.69-.16,29.53,0,3,0,4.27-.71,4.23-4-.16-14.23-.12-28.47,0-42.7,0-2.82-.69-4.08-3.79-4q-15.16.23-30.33,0c-3.07,0-3.87,1.17-3.81,4C211.86,24.09,211.76,31.14,211.76,38.19ZM317,32.28c-16.64,0-33.28.06-49.92-.05-3,0-4.59.76-4.16,4a11.57,11.57,0,0,1,0,3.19c-.62,4.05,1,5.18,5.08,5.16,31.82-.16,63.63-.06,95.45-.11,8.75,0,7.53,1.24,7.8-8,.1-3.31-1-4.36-4.32-4.33C350.3,32.35,333.66,32.28,317,32.28Z"/><path d="M93.41,213.29a249.36,249.36,0,0,1-7.34-32c-2.37-15.57-4.64-31.28-2-46.92a54.11,54.11,0,0,1,73.56-41.34,103.6,103.6,0,0,0,30.55,7.35,73,73,0,0,0,17.49-1.22c3.08-.52,4.84-.26,5.49,3.52,1.69,9.84,3.41,9.41-7.43,10.65a98.86,98.86,0,0,1-49.34-6.89c-16-6.52-30.86-4.43-44,6.94-9.56,8.27-13.88,19.21-13.71,31.62.32,22.35,3.43,44.34,10.36,65.67,2.14,6.59,4.51,13.1,7,19.58a35.49,35.49,0,0,1,2.31,10.89c1.16,22.21,2.26,44.43,3.44,66.64.43,8.11,1,16.22,1.54,24.32a13.38,13.38,0,0,0,5.14,9.59c1.46,1.22,2.4,1,2.6-1s.47-4,.53-6c.63-18.38,1.19-36.75,1.85-55.13q1.12-31.15,2.4-62.3a21.77,21.77,0,0,0-1.28-8.22,188.51,188.51,0,0,1-11-64.67c.12-12.44,11.08-20.08,22.65-15.36a130.86,130.86,0,0,0,45.47,9.72,116.7,116.7,0,0,0,17.13-1c2.9-.33,4.32.31,4.66,3.19,1.43,11.86,2.84,10-8.47,11A132.06,132.06,0,0,1,142.69,143c-.62-.25-1.24-.49-1.87-.71-4.51-1.62-6-.63-5.79,4.11.63,12.24,1.48,24.47,4.31,36.45,1,4.28,2.23,8.5,3.21,12.78.7,3,1.71,2.93,3.85,1a65.36,65.36,0,0,1,35.5-17c21-2.95,39.6,2.44,55.64,16.39,3.5,3,3.45,3.06,4.78-1.44,4.66-15.83,6.5-32.07,7.21-48.48.05-1.2.26-2.6-.68-3.43-4.17-3.68-2.06-8.46-2.22-12.77-.1-2.62,2.2-2.18,3.88-1.86,6.79,1.26,12.25,8,12.41,15.22.42,18.81-1.75,37.41-7.73,55.16-4.26,12.65-5,25.14-3.81,38.11.68,7.56.49,15.17.85,22.76.89,18.36,1.26,36.75,1.93,55.12.31,8.52.8,17,1.25,25.54,0,.86-.16,2.07,1,2.42s1.68-.61,2.35-1.22a12.69,12.69,0,0,0,4.46-8.68c.87-14,1.65-27.92,2.46-41.88q1.55-26.72,3.1-53.44c.27-4.5,2.48-8.41,4-12.51,8.8-23.66,14.11-48,14.82-73.29.24-8.65.17-17.06-3.76-24.95-6.39-12.79-16.57-20.64-30.77-22.9-2.67-.43-3.54-1.33-3.5-4.05.16-11.1.22-11.21,11-8.51,23.65,6,40.59,27.73,40.89,52.07.28,22.71-3.14,44.86-9.23,66.66-.32,1.14-.62,2.28-1,3.82,4.83-1,9.22-2.41,13.9-2.56,9.86-.31,18.8,3.49,28,6,14.79,4,29.47,8.38,44.2,12.59,6.07,1.74,7.31,3.32,7.31,9.61q0,68.19,0,136.39c0,6.79-2,8.79-8.84,8.79H8.95c-7,0-8.94-1.95-8.94-9.09q0-68,0-136c0-6.36,1.22-8,7.2-9.69,19-5.41,38-10.68,56.87-16.26,9.37-2.76,18.58-3.22,27.87,0A5.7,5.7,0,0,0,93.41,213.29ZM371.2,306.14q0-30,0-60c0-2.43-.12-4.3-3.08-5.12-18.35-5.09-36.61-10.5-55-15.48a27.2,27.2,0,0,0-29.3,10.68,8.18,8.18,0,0,0-1.75,4.37c-.18,3.72-.53,7.44-.72,11.16-1.4,26.32-2.73,52.65-4.19,79-.59,10.72-5,19.74-14.89,24.28-5.49,2.52-6.47,5.47-6.07,10.78.3,3.91,1.19,5.21,5.29,5.19q52.37-.24,104.75,0c3.77,0,5-.94,5-4.88C371.1,346.13,371.2,326.13,371.2,306.14Zm-357.84.29q0,29.58,0,59.16c0,5.31,0,5.32,5.21,5.32H118.1c10,0,9.87,0,10.25-9.76.09-2.42-.65-3.44-2.89-4.36-9.86-4.07-16.43-11.35-17.44-22-1.53-16.15-2.16-32.39-3.1-48.6q-1.31-22.72-2.46-45.45a8.28,8.28,0,0,0-1.7-4.38A27.29,27.29,0,0,0,71.1,225.66c-17.86,4.87-35.59,10.18-53.44,15.07-3.32.91-4.41,2.32-4.38,5.75C13.44,266.46,13.36,286.45,13.36,306.44Zm178.7,64.48c13.86,0,27.71.07,41.57,0,10.26-.07,8.78,1.67,8.86-9.23,0-2.44-.69-3.8-3.14-4.76-10.29-4-16.47-11.62-18.21-22.45-2.68-16.68-5-33.42-7.51-50.13-2.06-13.68-4-27.39-6.38-41A15,15,0,0,0,188,231.52c-7.16,2.06-10.27,7.45-11.31,14.47q-6.45,43.63-13,87.25c-1.51,10.21-6.41,18.32-15.89,22.43-4.92,2.13-6.39,4.81-5.72,9.55a4.15,4.15,0,0,1,0,1.2c-.54,3.51.93,4.61,4.45,4.57C161.68,370.83,176.87,370.92,192.06,370.92Zm49.33-28.28c.55-4.59-.16-8.51-.3-12.45-.94-25.29-1.76-50.58-2.69-75.87-.44-12.11-1-24.21-1.52-36.32a7.74,7.74,0,0,0-1.72-4.36c-20.22-28.08-65.43-28.11-85.73-.06a8.28,8.28,0,0,0-1.77,4.75q-1.17,32.94-2.45,65.88c-.68,17-1.5,34.06-2.18,51.09-.09,2.27-.57,4.64.42,7.14a12.67,12.67,0,0,0,6.17-8.84c.7-3.38,1.13-6.83,1.64-10.25,4.07-27.11,8-54.25,12.26-81.33,2.34-14.78,14.11-24.64,28.54-24.69,14.77,0,26.43,9.71,29,24.6,1.62,9.31,2.83,18.68,4.25,28q4.74,31.38,9.51,62.77A13.2,13.2,0,0,0,241.39,342.64Z"/></g></g></svg>