<svg xmlns="http://www.w3.org/2000/svg" viewBox="0 0 83.18 97.1"><defs><style>.cls-1{fill:#75716f;}</style></defs><title>Asset 20</title><g id="Layer_2" data-name="Layer 2"><g id="Capa_6" data-name="Capa 6"><g id="_Group_" data-name="&lt;Group&gt;"><path id="_Compound_Path_" data-name="&lt;Compound Path&gt;" class="cls-1" d="M62.62,0a25.09,25.09,0,0,1,7.3,2.22c7.65,4,11.79,10.53,13,19,.64,4.37-.06,8.68-.82,13-.29,1.65-.61,3.29-1,4.92-1,4.56-3.94,7.75-7.65,10.31A26,26,0,0,1,66,53c-.73.21-1.44.47-2.16.71a5,5,0,0,0-3.6,4.76c0,.61.4.59.79.7A3.22,3.22,0,0,1,62,65a4,4,0,0,1-2.37.5c-1.71,0-1.71,0-2.19,1.62q-.29,1-.59,1.9c-.15.48,0,.67.51.72,2.14.2,3.19,1.37,3.1,3.37a3.17,3.17,0,0,1-3.44,3c-3.22.06-2.42-.54-3.52,2.56l-.06.18c-.47,1.47-.65,1.47,1,1.5,1.88,0,2.87,1.07,3,3.06a3.2,3.2,0,0,1-2.67,3.29,17,17,0,0,1-3.21.12,1.05,1.05,0,0,0-1.17.85c-.5,1.56-1,3.12-1.56,4.67a6.75,6.75,0,0,1-6.66,4.79,13.25,13.25,0,0,1-2.55-.1,6.63,6.63,0,0,1-5.39-4.62c-.51-1.43-1-2.86-1.43-4.31-.26-.95-.71-1.37-1.73-1.27a10.11,10.11,0,0,1-2.64-.1,3.2,3.2,0,0,1,.36-6.37c1.39-.07,1.41-.08.94-1.4-1.2-3.41-.38-2.76-3.82-2.84a3.17,3.17,0,0,1-3.19-3,3.22,3.22,0,0,1,2.7-3.37c1-.19,1.1-.3.79-1.31-.2-.66-.45-1.31-.63-2a1.15,1.15,0,0,0-1.38-1,10.36,10.36,0,0,1-1.33,0,3.18,3.18,0,0,1-3.11-2.77,3.12,3.12,0,0,1,2.36-3.51c.84-.2.86-.52.68-1.25a5.7,5.7,0,0,0-4.73-4.72,24.91,24.91,0,0,1-9.92-4.74A15.63,15.63,0,0,1,2,39.27C.85,34-.28,28.75.06,23.35.68,13.74,5,6.41,13.76,2a24.6,24.6,0,0,1,6.79-2h4.74a40.1,40.1,0,0,1,4.37,1.18,62.13,62.13,0,0,1,10,5,3.48,3.48,0,0,0,3.93,0C48.09,3.57,52.64,1,57.88,0ZM40.78,52.84a88,88,0,0,0,11.73-.76A52.28,52.28,0,0,0,70.42,46.6c3.46-1.87,6.08-4.38,6.94-8.38.16-.74.34-1.47.48-2.22.85-4.73,1.68-9.47,1-14.28C77.86,14.78,74.57,9.27,68.23,6A15.55,15.55,0,0,0,57.49,4.32C53,5.31,49.13,7.65,45.26,10c-.75.45-.71.82.07,1.2a18.43,18.43,0,0,0,3.86,1.28A90.35,90.35,0,0,0,59.3,13.78c.33,0,.82,0,.85.4s-.47.44-.79.53a25.78,25.78,0,0,1-7.78.83A23.71,23.71,0,0,1,38,10.62a36.9,36.9,0,0,0-8.88-5.36,16.85,16.85,0,0,0-12.56,0C9,8.11,4.53,15.69,4.14,23.42A56,56,0,0,0,5.28,37a12.2,12.2,0,0,0,5.28,8.3A35.26,35.26,0,0,0,17.87,49,68.72,68.72,0,0,0,40.78,52.84Zm.81,12.6c-3.66,0-7.32,0-11,0-.72,0-1,.16-.71.92s.59,1.66.84,2.51a1,1,0,0,0,1.08.82q9.8,0,19.59,0a.87.87,0,0,0,1-.71c.26-.84.52-1.69.85-2.51s.1-1-.75-1C48.85,65.47,45.23,65.45,41.6,65.44Zm0-6.5v0c3.91,0,7.83-.07,11.74,0,2.34.05,2.34.16,3.09-2q.11-.31.23-.62c.22-.56.28-.88-.56-.71a65.87,65.87,0,0,1-10.52,1.17A86.65,86.65,0,0,1,28.37,56c-2.1-.35-2.06-.32-1.35,1.7A1.71,1.71,0,0,0,29,59C33.15,58.91,37.35,58.94,41.55,58.94Zm0,17.12H34.28c-1,0-1.08.08-.76,1,.25.75.55,1.48.75,2.24a1.17,1.17,0,0,0,1.35,1c3.19,0,6.38,0,9.57,0,1.09,0,2.39.43,3.23-.21s.79-2,1.23-3c.37-.85,0-1-.77-1C46.43,76.09,44,76.06,41.57,76.06Zm.07,10.72c-1.29,0-2.59,0-3.88,0-.76,0-.95.27-.68,1,.33.88.61,1.79.91,2.69a3.48,3.48,0,0,0,4.27,2.47,3,3,0,0,0,2.59-1.8c.45-1.18.81-2.39,1.23-3.58.19-.55,0-.76-.55-.76Z"/></g></g></g></svg>