<svg xmlns="http://www.w3.org/2000/svg" viewBox="0 0 384.37 384.34"><title>Asset 60</title><g id="Layer_2" data-name="Layer 2"><g id="Capa_6" data-name="Capa 6"><path d="M.09,221.87c3.58-12.42,11.1-21.06,23.79-24.71,6.47-1.86,12.89-1.23,19.88,1-3.42-9.35-6.51-18.1-8.33-27.2-3.2-16-5.8-32.14-2-48.33,8.31-35.43,46.23-55.27,80-41.71,19.15,7.7,38.37,9.51,58.17,3.4,2.49-.77,3.72-.06,4.46,2.32,3.41,10.92,5.46,9.35-6.32,12.33-20.19,5.12-39.87,3.21-59.11-4.59-18.06-7.32-34.82-5-49.67,7.7C50,111.49,45,124,45.28,138.31A147.3,147.3,0,0,0,57.4,195a181.17,181.17,0,0,0,8.26,16.87c3.9,6.87,5.74,14.15,6.56,22,3.05,29.13,6.4,58.23,9.62,87.34.73,6.58,5.31,11.29,11.2,11.46s10.59-4,11.69-10.47c4.54-26.65,8.92-53.32,13.51-80A29.45,29.45,0,0,1,176.3,242c4.59,26.5,8.94,53,13.48,79.56,1.27,7.42,5.44,10.94,12.09,10.71,6.18-.21,10.08-4.18,10.92-11.51q4.44-39.09,8.75-78.19c.55-4.9,1-9.81,1.67-14.69a19.29,19.29,0,0,1,5.45-11.33c4-4,7.76-8.1,11.94-11.82,10.36-9.2,22.28-11.44,34.9-5.82,12.21,5.44,19.17,15.25,19.21,28.89.15,49.46,0,98.93.12,148.39a10.11,10.11,0,0,1-3.53,8.07q-143.87,0-287.75.07C.82,384.34,0,384,0,380.93Q.19,301.4.09,221.87ZM147,371.2H275.82c5.59,0,5.59,0,5.59-5.74q0-29,0-58c0-25.73,0-51.46,0-77.19,0-8.37-3.13-15.26-11.23-18.66s-15.66-1.61-22,4.61c-2.38,2.33-4.57,4.88-7.12,7-3.36,2.82-4.4,6.43-4.74,10.57-.5,6-1.21,11.92-1.88,17.87-2.3,20.64-4.55,41.28-7,61.9-.74,6.31-.64,12.81-3.64,18.71A25.36,25.36,0,0,1,197.18,346c-10.85-1.61-19.12-10.39-21.16-22.59q-6.49-38.8-12.92-77.62c-1.45-8.76-7.79-14.67-15.82-14.71s-14.38,6-15.82,14.68q-6.42,38.82-12.91,77.63c-.84,5.06-2.42,9.84-5.88,13.79-7.11,8.13-16.07,11-26.32,8C75,341.89,69.27,333.52,68,322q-4.93-44.66-9.84-89.32c-.27-2.44-.2-5.06-2.28-7-3.57-3.4-6.93-7-10.54-10.38a18.61,18.61,0,0,0-18.17-4.58c-9,2.27-14,9.59-14,20.31q0,67.39,0,134.78c0,5.44,0,5.45,5.48,5.45Z"/><path d="M288.08,0a96.27,96.27,0,0,1,0,192.55c-53.63,0-96.36-42.9-96.3-96.68A95.83,95.83,0,0,1,288.08,0Zm.2,13.37c-45.85.71-82.69,35.86-82.91,82.63-.22,45.87,35.56,82.72,82.35,83,46.38.26,83-36.05,83.09-82.64C370.88,50.48,335.12,14.35,288.28,13.37Z"/><path d="M57.36,140.68c.23-11.93,6.65-25,19.23-35.21,2.25-1.82,3.81-2,5.35.76,1.42,2.55,4.07,4.8,4.45,7.44.45,3.08-3.53,4.14-5.44,6.19-7.34,7.85-10.18,17.24-10.19,27.74,0,6.56,0,6.6-6.41,6.55C56.25,154.07,57.54,155.09,57.36,140.68Z"/><path d="M287.93,160.55c-5.73,0-11.46,0-17.19,0-6.49,0-8.5-2.08-8.52-8.7,0-8.53-.12-17.06,0-25.58.06-3.1-.86-4.24-4.08-4.17-8.79.18-17.59.09-26.38,0-5.73,0-8-2.26-8-8q-.06-17.79,0-35.58c0-6,2.2-8.09,8.29-8.12,8.66,0,17.33-.12,26,0,3.09.06,4.25-.85,4.18-4.08-.19-8.79-.09-17.59,0-26.38,0-5.75,2.25-8,8-8Q288,32,305.83,32c6,0,8.1,2.21,8.13,8.28,0,8.66.12,17.33,0,26-.06,3.08.83,4.25,4.07,4.18,8.79-.19,17.59-.09,26.38,0,5.74,0,8,2.25,8,8q.06,17.79,0,35.58c0,6-2.22,8.11-8.29,8.13-8.66,0-17.33.12-26,0-3.09-.06-4.25.85-4.18,4.08.19,8.79.1,17.59,0,26.38,0,5.73-2.27,7.94-8,8C299.93,160.59,293.93,160.55,287.93,160.55Zm-12.36-30.73c0,4.4.19,8.8-.06,13.19-.2,3.43,1.19,4.37,4.41,4.25,5.45-.2,10.93-.21,16.38,0,3.26.13,4.46-.9,4.38-4.28-.2-8.66-.09-17.32-.05-26,0-6,2.2-8.16,8.22-8.19,8.53,0,17.06-.2,25.58.07,3.82.12,4.83-1.24,4.66-4.83-.26-5.32-.22-10.66,0-16,.13-3.26-.89-4.46-4.27-4.38-8.66.2-17.32.09-26,.05-6,0-8.17-2.21-8.19-8.22,0-8.53-.2-17.06.07-25.58.12-3.82-1.24-4.83-4.83-4.66-5.32.26-10.66.22-16,0-3.26-.13-4.46.89-4.38,4.27.2,8.79.1,17.58,0,26.38,0,5.48-2.32,7.75-7.81,7.79-8.66.05-17.33.2-26-.07-3.83-.12-4.83,1.26-4.65,4.83.25,5.32.22,10.66,0,16-.13,3.26.9,4.45,4.28,4.38,8.92-.19,17.85-.11,26.78,0,5,0,7.29,2.4,7.38,7.41C275.62,120.76,275.56,125.29,275.57,129.82Z"/></g></g></svg>