<svg xmlns="http://www.w3.org/2000/svg" viewBox="0 0 383.8 311.11"><title>Asset 30</title><g id="Layer_2" data-name="Layer 2"><g id="Capa_6" data-name="Capa 6"><path d="M122.67,311.1q-55.39,0-110.78,0a34,34,0,0,1-5.57-.31c-4.08-.68-6-3-6.17-7.09-.08-2.26,0-4.53,0-6.8,0-39.06.09-78.12-.11-117.18,0-5.46,1.46-9.27,5.94-12.54,6.25-4.55,12-9.86,20.07-11a1.28,1.28,0,0,0,.39-.09c2.1-1,5.58,1,6.41-1.49.61-1.86-1.15-4.49-1.84-6.77-4.16-13.77-6.84-27.76-4.45-42.14C30.09,84.18,47.68,68.22,69.32,66A46.74,46.74,0,0,1,95,70.37c18.55,8.93,36.87,8.58,55.46,0,17.17-7.93,33.94-6.34,49.14,4.79s20.94,26.45,19.77,45.06c-1.27,20.19-7.65,38.5-18.13,55.64-3.4,5.56-3.19,12.31-4.4,18.54-4.54,23.4-8.8,46.85-13.15,70.29-3,16.14-16.53,24.55-30.41,18.7-9.51-4-12.81-12-13.82-21.67-2.89-27.54-6-55.06-9-82.58-.65-5.91-2.69-8.73-6.48-9.36a7.24,7.24,0,0,0-8.8,6.59c-1.74,14.67-3.31,29.37-4.93,44.05-1.67,15.08-3.14,30.19-5,45.24C103.72,277.07,95,284.84,84.22,285c-11.75.15-20.15-7-22.42-19.11q-7.85-41.81-15.72-83.62C43.94,171,32.21,165.9,22.46,171.95a84.43,84.43,0,0,0-7.25,5.64,4.92,4.92,0,0,0-1.7,4.27q0,56,0,112c0,2.64,1,3.47,3.57,3.45,9.6-.09,19.2,0,28.8,0H225c6.38,0,6.38,0,6.38-6.2q0-48.39,0-96.79c0-5.7,0-5.73,5.85-5.72,8.67,0,8.08-.75,8.08,7.9q0,52,0,104c0,8.45-2.19,10.66-10.68,10.66Q178.66,311.12,122.67,311.1ZM39.59,115.63a98.11,98.11,0,0,0,14.63,50.46c1.91,3.18,4.07,6.22,4.76,10q4.35,23.77,8.88,47.51c2.59,13.74,5.14,27.48,7.9,41.19a7.81,7.81,0,0,0,7.92,6.58,8,8,0,0,0,7.69-7.32C93.3,247.56,95.11,231,97,214.49c1.54-13.62,2.82-27.28,4.77-40.84,1.6-11.11,10.6-18.2,21.57-18a21.17,21.17,0,0,1,20.3,18.63c1.58,12.41,2.81,24.86,4.18,37.3,1.91,17.33,3.74,34.67,5.75,52,.71,6.08,6,9.24,11.29,7,3.17-1.33,4.37-4,5-7.21,4.76-25.52,9.5-51,14.41-76.54,1.07-5.57,1-11.52,4.2-16.53,9.53-15,15.57-31.12,17.1-48.91,1.2-13.89-1.93-26.09-13.5-34.8s-24-9.46-36.94-3.43Q122.24,98.48,89.5,83a35.41,35.41,0,0,0-14.64-3.59C54.82,79.09,38,95.85,39.59,115.63Z"/><path d="M247.6,163.19c-.65.59-1.46,1.26-2.2,2-8.4,8.38-16.86,16.71-25.13,25.21-2.28,2.34-3.75,2.48-6.11.07-6.7-6.81-6.8-6.71-.15-13.36,7.07-7.07,14.06-14.22,21.26-21.17,2.32-2.24,2.72-3.84.09-6.08s-4.78-4.65-7.1-7c-4.27-4.39-4.32-7.7,0-12q16.07-16.18,32.23-32.26l35.35-35.35c3.58-3.58,3.57-3.58-.13-7.28-2.92-2.92-5.78-5.92-8.79-8.75-1.79-1.68-1.67-3,0-4.63,9.18-8.85,6.08-8.4,14.26-.55q6.06,5.81,11.87,11.89c1.78,1.86,3.14,1.9,5,0q8.8-9,17.81-17.82c1.6-1.57,1.54-2.63,0-4.28-6.08-6.59-5.91-6.54.26-12.83,2.47-2.52,4-2.43,6.46,0q19.5,19.81,39.31,39.31c2.48,2.44,2.61,3.94,0,6.41-6.38,6.16-6.3,6.32-12.78.37-1.56-1.44-2.67-1.8-4.31-.13q-9.1,9.28-18.39,18.37c-1.83,1.78-1,2.85.35,4.24,5.31,5.24,10.49,10.64,15.89,15.79,2.3,2.19,2.65,3.68.17,6.11-6.86,6.73-6.71,6.8-13.68,0-2.55-2.5-4.66-6.81-7.87-6.9s-5.37,4.29-7.89,6.79q-31.33,31.18-62.54,62.47c-5.42,5.42-8.24,5.4-13.71,0-2.36-2.35-4.7-4.72-7.08-7.06C249.45,164.05,248.92,163.2,247.6,163.19Zm42.28-73.92a3.78,3.78,0,0,0-1.08.51c-2.47,2.43-5,4.85-7.34,7.35-1.17,1.23-.06,2.11.67,3.07,1.8,2.36,6.06,3.86,5.24,6.85-.74,2.71-4.15,4.65-6.28,7-1.65,1.85-2.94,1.53-4.65-.06-6.26-5.83-6.31-5.77-12.38.39a10.37,10.37,0,0,1-.85.85c-1.91,1.53-1.65,2.85,0,4.59,5.91,6.3,5.85,6.36-.44,12.54-.29.28-.59.54-.85.85-1.5,1.78-2.81,1.84-4.64.16-6.44-5.91-6.5-5.85-12.63.44a6.15,6.15,0,0,1-.57.56c-2.11,1.66-1.75,3.13.06,4.9Q253,148,261.65,156.82c1.72,1.76,2.94,2.13,4.89.17q31.43-31.6,63-63c1.61-1.6,1.58-2.69,0-4.25-4.69-4.54-9.26-9.21-13.87-13.82-6.56-6.57-6.46-6.46-13.06-.11-2.43,2.34-2.87,3.8-.16,6.33,5.48,5.12,5.33,5.27-.11,10.71-4.14,4.14-4.11,4.11-8.25.06C292.78,91.59,291.74,90,289.88,89.27Zm44.71-14.6c1.44,0,2.16-1.07,3-1.89q6.36-6.31,12.68-12.66c7.23-7.23,7.17-7.17-.19-14.13-1.93-1.83-3.14-1.69-4.9.12-4.89,5.06-9.92,10-14.9,15s-5,5,.15,10.09C331.73,72.43,332.79,74,334.59,74.67Z"/><path d="M244.59,33.38c3.86,0,7.73-.09,11.58,0,7.11.21,10.2,5.22,6.78,11.33-7.8,13.94-15.82,27.76-23.67,41.67-1.2,2.13-2.37,2.3-4.47,1.18-9.27-5-9.3-4.9-4.13-14,4.43-7.74,8.81-15.51,13.33-23.2,1.41-2.4,1.11-3.2-1.78-3.16-7.06.1-14.11.08-21.17,0-7.29-.07-10.22-4.06-8-10.93,3.61-11,7.43-21.93,10.92-33,1.08-3.41,2.65-4,5.84-2.83,10.19,3.74,9,1.63,5.89,11.46-1.77,5.58-3.7,11.11-5.54,16.67-1.54,4.66-1.53,4.67,3.19,4.69,3.73,0,7.46,0,11.18,0Z"/><path d="M52.18,119.79c.07-10.43,3.25-19.35,12.48-25.21,3.54-2.25,4.18-1.94,5.54,2.07.47,1.38.82,2.82,1.42,4.15,1.27,2.84,1.09,4.84-1.62,7.17-5.2,4.47-4.46,10.91-3.58,16.78.56,3.77-.63,4.87-3.91,5.66-9.44,2.28-10,2-10.33-7.84C52.15,121.65,52.18,120.72,52.18,119.79Z"/></g></g></svg>