<svg xmlns="http://www.w3.org/2000/svg" viewBox="0 0 2060.26 640.68"><defs><style>.cls-1{fill:#cbdd92;}.cls-2{fill:#c2d097;}.cls-3{fill:#81847c;}.cls-4{fill:#959a8b;}.cls-5{fill:#a8b295;}.cls-6{fill:#75716f;}</style></defs><title>Asset 30</title><g id="Layer_2" data-name="Layer 2"><g id="Capa_6" data-name="Capa 6"><path id="_Path_" data-name="&lt;Path&gt;" class="cls-1" d="M2060.26,189.66c-82.73-5.65-165.44-2.25-247.88,4.27-93.22,7.37-186.11,19.11-279.06,30.07q-110.08,13-220.8,19.78c-86.69,5.23-173.08,2.29-259.29-5.42-106.81-9.56-213.06-24.88-319.3-40.3-78.57-11.41-157.39-20.92-236.17-30.64-134.88-16.64-270.09-14.75-405.37-12.94-30.66.41-61.31,2.11-92,3.22V143.5c86.31-7,172.73-11.67,259.27-13.54,108.11-2.33,215.37,8.62,322.48,23.45,124.25,17.21,247.77,39.9,372,56.79q104.24,14.17,209.32,19.92c112.09,6.34,223.16-3.94,334.16-18.15,92.89-11.89,185.64-25.34,278.7-35.46,94.33-10.26,189-13.68,283.88-8.17Z"/><path id="_Path_2" data-name="&lt;Path&gt;" class="cls-1" d="M2060.26,33.56c-81-5.6-162.18-5.82-243.06.76-99.36,8.08-197,27.7-294.2,49.28-98.2,21.81-196.45,43.47-296.13,57.36a1174.08,1174.08,0,0,1-285,5.14C816.1,133,692.2,108.56,567.72,87.48,474.44,71.67,381,56.8,286.55,49.47c-64-5-128-7.64-192-2.25C63.07,49.88,31.8,55.57.42,59.88V30.27c32.49-4.09,64.42-11.41,97.23-14.12,52-4.29,104.11-4.24,156-1.18,75.84,4.48,151.09,15.09,226,27.91C565.88,57.62,651.56,75,737.53,91c83.32,15.5,166.92,28.62,251.58,35.38,134.62,10.75,266.27-7.75,397.36-35.23,98.42-20.63,195.78-46,294.62-64.87S1879.2-1.83,1979.7.3c26.84.57,53.7.26,80.56.35Z"/><path id="_Path_3" data-name="&lt;Path&gt;" class="cls-2" d="M2060.26,246.64c-82.73-5.65-165.44-2.25-247.88,4.27-93.22,7.37-186.11,19.11-279.06,30.07q-110.08,13-220.8,19.78c-86.69,5.23-173.08,2.29-259.29-5.42-106.81-9.56-213.06-24.88-319.3-40.3-78.57-11.41-157.39-20.92-236.17-30.64-134.88-16.64-270.09-14.75-405.37-12.94-30.66.41-61.31,2.11-92,3.22v-14.2c86.31-7,172.73-11.67,259.27-13.54,108.11-2.33,215.37,8.62,322.48,23.45,124.25,17.21,247.77,39.9,372,56.79q104.24,14.17,209.32,19.92c112.09,6.34,223.16-3.94,334.16-18.15,92.89-11.89,185.64-25.34,278.7-35.46,94.33-10.26,189-13.68,283.88-8.17Z"/><path id="_Path_4" data-name="&lt;Path&gt;" class="cls-3" d="M.42,426.31c93,5.67,186,12.39,279.17,10.06,79.91-2,159.53-9.29,238.87-20C602,405,685.62,394.6,769.13,383.07c112.53-15.54,225.29-27.41,338.9-23.7,77.16,2.52,154,10.37,230.68,19.8q95.39,11.73,190.89,22.35c75.65,8.32,151.25,17.79,227.08,23.36,86.34,6.34,172.91,9.82,259.45,2.3,14.72-1.28,29.42-2.94,44.12-4.42v24.86a1097.63,1097.63,0,0,1-201.5,10.06c-94.07-3.87-187.72-13.23-281-26.87-88.83-13-177.79-25-266.68-37.5-97.17-13.7-194.51-25.75-292.7-23.66-93.14,2-185.36,15.09-277.41,29.7-107.59,17.07-214.55,38.43-322.59,52.53-81.65,10.66-163.44,16.86-245.6,15.78-57.46-.76-114.89-3.8-172.34-5.83Z"/><path id="_Path_5" data-name="&lt;Path&gt;" class="cls-4" d="M.42,338.49c80.8,5.8,161.57,12.21,242.41,17.25,94.13,5.87,188.4,4.56,282.64,4.71,114.52.18,228.92-5,343.32-9q237.46-8.21,474.92-4.39c74,1.31,147.93,1.24,221.87,3.15,164.87,4.26,329.76,6.64,494.68,6V381.1c-74.54-.27-149.11,1-223.6-1.18-108.91-3.25-217.77-8.62-326.62-13.9-80.4-3.9-160.78-7.78-241.22-10.68-73.42-2.65-146.83-4-220.21-1.93-100.14,2.86-200.16,9-300.15,15.86q-109,7.49-218.1,12.53c-74.52,3.37-149,3.79-223.49,2.63-88.68-1.39-177.07-9.3-265.46-16.82-13.6-1.16-27.33-.52-41-.71Q.42,352.69.42,338.49Z"/><path id="_Path_6" data-name="&lt;Path&gt;" class="cls-5" d="M2060.26,308c-76.7-6.3-153.33.31-230,1.57-42.17.7-84.31,3.35-126.48,4.84-78.31,2.76-156.69,4-234.93,8.24-142.45,7.77-285,8.32-427.47,5.74-98-1.78-196.06-6.61-294.06-10.72-67.31-2.82-134.59-6.72-201.88-10.15q-176.44-9-352.87-18c-64-3.35-128-7.4-192.17-6.35V261.8c79.46-1.45,158.9,1.23,238.24,4.65C336,270.64,433.2,277.1,530.38,284c103.69,7.36,207.3,16.14,310.91,24.71,79.68,6.59,159.46,10.87,239.3,14.46,53.69,2.41,107.36,3.62,161,2.35q129.69-3.07,259.16-12.76c67.71-5,135.59-7.27,203.27-12.53,115.89-9,231.88-11.95,348-10.3,2.74,0,5.48.19,8.22.29Z"/><path id="_Path_7" data-name="&lt;Path&gt;" class="cls-6" d="M2060.26,486c-31.39,4.66-62.66,10.79-94.19,13.66-64,5.82-128,2.93-192-2.43-94.51-7.91-187.93-24-281.23-41-38.72-7.08-77.38-14.51-116.06-21.81-85.7-16.17-171.49-31.72-258.16-41.48a1088.87,1088.87,0,0,0-285.06,5.55c-62.3,9.37-124.05,22-185.58,35.93-36.93,8.35-73.77,17.16-110.61,26-97.21,23.3-194.88,44.48-294.26,53.2-80.9,7.1-162.06,6.87-243.11.82V640.68H2060.26V518h0V486Z"/></g></g></svg>