<svg xmlns="http://www.w3.org/2000/svg" viewBox="0 0 1788.67 263.64"><defs><style>.cls-1{fill:#cbdd92;}</style></defs><title>Asset 60</title><g id="Layer_2" data-name="Layer 2"><g id="Capa_6" data-name="Capa 6"><path id="_Path_" data-name="&lt;Path&gt;" class="cls-1" d="M0,0C98.65,5.63,194.51,26.3,289.24,53.33c104.19,29.73,205.91,67.13,309.33,99.24,86.74,26.93,174.51,49,264.63,61.29,58.36,8,116.3,5.06,174.67-1.29,155-16.86,306.63-52.85,459.78-80.17,91.18-16.27,182.78-29.85,275.6-32.84,5.16-.17,10.28-1.58,15.41-2.42v31.43a2262,2262,0,0,0-225.12,24.57c-129.89,20.66-258,50.4-387.34,74-78,14.22-156.5,24.89-235.39,33.53-83.76,9.17-164.83-4.14-245.6-22.06C583.6,213.81,477,172.8,369.68,134.41,271.22,99.2,172.2,65.9,69,47,46.17,42.86,23,40.4,0,37.14Q0,18.57,0,0Z"/></g></g></svg>